<?xml version="1.0" encoding="utf-8"?>
<svg version="1.1" xmlns:xlink="http://www.w3.org/1999/xlink" width="71px" height="19px" xmlns="http://www.w3.org/2000/svg">
  <defs>
    <mask fill="white" id="clip3">
      <path d="M 2.74186991869919 19  C 1.20642276422768 19  0 14.82  0 9.5  C 0 4.18000000000001  1.20642276422768 0  2.74186991869919 0  L 36.0588235294126 0  L 50.8328642563322 0  L 68.2581300813008 0  C 69.7935772357723 0  71 4.18000000000001  71 9.5  C 71 14.82  69.7935772357723 19  68.2581300813008 19  L 60.6704914483654 19  L 55.8235294117648 19  L 45.9647259375829 19  L 21.7298838132351 19  L 2.74186991869919 19  Z " fill-rule="evenodd" />
    </mask>
  </defs>
  <g transform="matrix(1 0 0 1 -1220 -108 )">
    <path d="M 2.74186991869919 19  C 1.20642276422768 19  0 14.82  0 9.5  C 0 4.18000000000001  1.20642276422768 0  2.74186991869919 0  L 36.0588235294126 0  L 50.8328642563322 0  L 68.2581300813008 0  C 69.7935772357723 0  71 4.18000000000001  71 9.5  C 71 14.82  69.7935772357723 19  68.2581300813008 19  L 60.6704914483654 19  L 55.8235294117648 19  L 45.9647259375829 19  L 21.7298838132351 19  L 2.74186991869919 19  Z " fill-rule="nonzero" fill="#81d3f8" stroke="none" fill-opacity="0.184313725490196" transform="matrix(1 0 0 1 1220 108 )" />
    <path d="M 2.74186991869919 19  C 1.20642276422768 19  0 14.82  0 9.5  C 0 4.18000000000001  1.20642276422768 0  2.74186991869919 0  L 36.0588235294126 0  L 50.8328642563322 0  L 68.2581300813008 0  C 69.7935772357723 0  71 4.18000000000001  71 9.5  C 71 14.82  69.7935772357723 19  68.2581300813008 19  L 60.6704914483654 19  L 55.8235294117648 19  L 45.9647259375829 19  L 21.7298838132351 19  L 2.74186991869919 19  Z " stroke-width="2" stroke="#81d3f8" fill="none" stroke-opacity="0.317647058823529" transform="matrix(1 0 0 1 1220 108 )" mask="url(#clip3)" />
  </g>
</svg>