<?xml version="1.0" encoding="utf-8"?>
<svg version="1.1" xmlns:xlink="http://www.w3.org/1999/xlink" width="168px" height="19px" xmlns="http://www.w3.org/2000/svg">
  <defs>
    <mask fill="white" id="clip2">
      <path d="M 6.48780487804878 19  C 2.85463414634143 19  0 14.82  0 9.5  C 0 4.18000000000001  2.85463414634143 0  6.48780487804878 0  L 161.512195121951 0  C 165.145365853658 0  168 4.18000000000001  168 9.5  C 168 14.82  165.145365853658 19  161.512195121951 19  L 108.761605035407 19  L 6.48780487804878 19  Z " fill-rule="evenodd" />
    </mask>
  </defs>
  <g transform="matrix(1 0 0 1 -341 -142 )">
    <path d="M 6.48780487804878 19  C 2.85463414634143 19  0 14.82  0 9.5  C 0 4.18000000000001  2.85463414634143 0  6.48780487804878 0  L 161.512195121951 0  C 165.145365853658 0  168 4.18000000000001  168 9.5  C 168 14.82  165.145365853658 19  161.512195121951 19  L 108.761605035407 19  L 6.48780487804878 19  Z " fill-rule="nonzero" fill="#81d3f8" stroke="none" fill-opacity="0.184313725490196" transform="matrix(1 0 0 1 341 142 )" />
    <path d="M 6.48780487804878 19  C 2.85463414634143 19  0 14.82  0 9.5  C 0 4.18000000000001  2.85463414634143 0  6.48780487804878 0  L 161.512195121951 0  C 165.145365853658 0  168 4.18000000000001  168 9.5  C 168 14.82  165.145365853658 19  161.512195121951 19  L 108.761605035407 19  L 6.48780487804878 19  Z " stroke-width="2" stroke="#81d3f8" fill="none" stroke-opacity="0.317647058823529" transform="matrix(1 0 0 1 341 142 )" mask="url(#clip2)" />
  </g>
</svg>