<?xml version="1.0" encoding="utf-8"?>
<svg version="1.1" xmlns:xlink="http://www.w3.org/1999/xlink" width="12px" height="12px" viewBox="330 166.5  12 12" xmlns="http://www.w3.org/2000/svg">
  <path d="M 336 166.5  C 339.36 166.5  342 169.14  342 172.5  C 342 175.86  339.36 178.5  336 178.5  C 332.64 178.5  330 175.86  330 172.5  C 330 169.14  332.64 166.5  336 166.5  Z " fill-rule="nonzero" fill="#ffffff" stroke="none" />
  <path d="M 336 167  C 339.08 167  341.5 169.42  341.5 172.5  C 341.5 175.58  339.08 178  336 178  C 332.92 178  330.5 175.58  330.5 172.5  C 330.5 169.42  332.92 167  336 167  Z " stroke-width="1" stroke="#797979" fill="none" />
  <path d="M 336 175.5  C 334.32 175.5  333 174.18  333 172.5  C 333 170.82  334.32 169.5  336 169.5  C 337.68 169.5  339 170.82  339 172.5  C 339 174.18  337.68 175.5  336 175.5  " fill-rule="nonzero" fill="#797979" stroke="none" />
</svg>