<?xml version="1.0" encoding="utf-8"?>
<svg version="1.1" xmlns:xlink="http://www.w3.org/1999/xlink" width="12px" height="12px" viewBox="219 203.5  12 12" xmlns="http://www.w3.org/2000/svg">
  <path d="M 225 203.5  C 228.36 203.5  231 206.14  231 209.5  C 231 212.86  228.36 215.5  225 215.5  C 221.64 215.5  219 212.86  219 209.5  C 219 206.14  221.64 203.5  225 203.5  Z " fill-rule="nonzero" fill="#ffffff" stroke="none" />
  <path d="M 225 204  C 228.08 204  230.5 206.42  230.5 209.5  C 230.5 212.58  228.08 215  225 215  C 221.92 215  219.5 212.58  219.5 209.5  C 219.5 206.42  221.92 204  225 204  Z " stroke-width="1" stroke="#797979" fill="none" />
  <path d="M 225 212.5  C 223.32 212.5  222 211.18  222 209.5  C 222 207.82  223.32 206.5  225 206.5  C 226.68 206.5  228 207.82  228 209.5  C 228 211.18  226.68 212.5  225 212.5  " fill-rule="nonzero" fill="#797979" stroke="none" />
</svg>