<?xml version="1.0" encoding="utf-8"?>
<svg version="1.1" xmlns:xlink="http://www.w3.org/1999/xlink" width="12px" height="12px" viewBox="350 203.5  12 12" xmlns="http://www.w3.org/2000/svg">
  <path d="M 356 203.5  C 359.36 203.5  362 206.14  362 209.5  C 362 212.86  359.36 215.5  356 215.5  C 352.64 215.5  350 212.86  350 209.5  C 350 206.14  352.64 203.5  356 203.5  Z " fill-rule="nonzero" fill="#ffffff" stroke="none" />
  <path d="M 356 204  C 359.08 204  361.5 206.42  361.5 209.5  C 361.5 212.58  359.08 215  356 215  C 352.92 215  350.5 212.58  350.5 209.5  C 350.5 206.42  352.92 204  356 204  Z " stroke-width="1" stroke="#797979" fill="none" />
  <path d="M 356 212.5  C 354.32 212.5  353 211.18  353 209.5  C 353 207.82  354.32 206.5  356 206.5  C 357.68 206.5  359 207.82  359 209.5  C 359 211.18  357.68 212.5  356 212.5  " fill-rule="nonzero" fill="#797979" stroke="none" />
</svg>