<?xml version="1.0" encoding="utf-8"?>
<svg version="1.1" xmlns:xlink="http://www.w3.org/1999/xlink" width="12px" height="12px" viewBox="289 203.5  12 12" xmlns="http://www.w3.org/2000/svg">
  <path d="M 295 203.5  C 298.36 203.5  301 206.14  301 209.5  C 301 212.86  298.36 215.5  295 215.5  C 291.64 215.5  289 212.86  289 209.5  C 289 206.14  291.64 203.5  295 203.5  Z " fill-rule="nonzero" fill="#ffffff" stroke="none" />
  <path d="M 295 204  C 298.08 204  300.5 206.42  300.5 209.5  C 300.5 212.58  298.08 215  295 215  C 291.92 215  289.5 212.58  289.5 209.5  C 289.5 206.42  291.92 204  295 204  Z " stroke-width="1" stroke="#797979" fill="none" />
  <path d="M 295 212.5  C 293.32 212.5  292 211.18  292 209.5  C 292 207.82  293.32 206.5  295 206.5  C 296.68 206.5  298 207.82  298 209.5  C 298 211.18  296.68 212.5  295 212.5  " fill-rule="nonzero" fill="#797979" stroke="none" />
</svg>