<?xml version="1.0" encoding="utf-8"?>
<svg version="1.1" xmlns:xlink="http://www.w3.org/1999/xlink" width="12px" height="12px" viewBox="330 161.5  12 12" xmlns="http://www.w3.org/2000/svg">
  <path d="M 336 161.5  C 339.36 161.5  342 164.14  342 167.5  C 342 170.86  339.36 173.5  336 173.5  C 332.64 173.5  330 170.86  330 167.5  C 330 164.14  332.64 161.5  336 161.5  Z " fill-rule="nonzero" fill="#ffffff" stroke="none" />
  <path d="M 336 162  C 339.08 162  341.5 164.42  341.5 167.5  C 341.5 170.58  339.08 173  336 173  C 332.92 173  330.5 170.58  330.5 167.5  C 330.5 164.42  332.92 162  336 162  Z " stroke-width="1" stroke="#02a7f0" fill="none" />
  <path d="M 336 170.5  C 334.32 170.5  333 169.18  333 167.5  C 333 165.82  334.32 164.5  336 164.5  C 337.68 164.5  339 165.82  339 167.5  C 339 169.18  337.68 170.5  336 170.5  " fill-rule="nonzero" fill="#02a7f0" stroke="none" />
</svg>