<?xml version="1.0" encoding="utf-8"?>
<svg version="1.1" xmlns:xlink="http://www.w3.org/1999/xlink" width="12px" height="12px" viewBox="350 271.5  12 12" xmlns="http://www.w3.org/2000/svg">
  <path d="M 356 271.5  C 359.36 271.5  362 274.14  362 277.5  C 362 280.86  359.36 283.5  356 283.5  C 352.64 283.5  350 280.86  350 277.5  C 350 274.14  352.64 271.5  356 271.5  Z " fill-rule="nonzero" fill="#ffffff" stroke="none" />
  <path d="M 356 272  C 359.08 272  361.5 274.42  361.5 277.5  C 361.5 280.58  359.08 283  356 283  C 352.92 283  350.5 280.58  350.5 277.5  C 350.5 274.42  352.92 272  356 272  Z " stroke-width="1" stroke="#797979" fill="none" />
  <path d="M 356 280.5  C 354.32 280.5  353 279.18  353 277.5  C 353 275.82  354.32 274.5  356 274.5  C 357.68 274.5  359 275.82  359 277.5  C 359 279.18  357.68 280.5  356 280.5  " fill-rule="nonzero" fill="#797979" stroke="none" />
</svg>