<?xml version="1.0" encoding="utf-8"?>
<svg version="1.1" xmlns:xlink="http://www.w3.org/1999/xlink" width="12px" height="12px" viewBox="217 161.5  12 12" xmlns="http://www.w3.org/2000/svg">
  <path d="M 223 161.5  C 226.36 161.5  229 164.14  229 167.5  C 229 170.86  226.36 173.5  223 173.5  C 219.64 173.5  217 170.86  217 167.5  C 217 164.14  219.64 161.5  223 161.5  Z " fill-rule="nonzero" fill="#ffffff" stroke="none" />
  <path d="M 223 162  C 226.08 162  228.5 164.42  228.5 167.5  C 228.5 170.58  226.08 173  223 173  C 219.92 173  217.5 170.58  217.5 167.5  C 217.5 164.42  219.92 162  223 162  Z " stroke-width="1" stroke="#797979" fill="none" />
  <path d="M 223 170.5  C 221.32 170.5  220 169.18  220 167.5  C 220 165.82  221.32 164.5  223 164.5  C 224.68 164.5  226 165.82  226 167.5  C 226 169.18  224.68 170.5  223 170.5  " fill-rule="nonzero" fill="#797979" stroke="none" />
</svg>