<?xml version="1.0" encoding="utf-8"?>
<svg version="1.1" xmlns:xlink="http://www.w3.org/1999/xlink" width="12px" height="12px" viewBox="289 271.5  12 12" xmlns="http://www.w3.org/2000/svg">
  <path d="M 295 271.5  C 298.36 271.5  301 274.14  301 277.5  C 301 280.86  298.36 283.5  295 283.5  C 291.64 283.5  289 280.86  289 277.5  C 289 274.14  291.64 271.5  295 271.5  Z " fill-rule="nonzero" fill="#ffffff" stroke="none" />
  <path d="M 295 272  C 298.08 272  300.5 274.42  300.5 277.5  C 300.5 280.58  298.08 283  295 283  C 291.92 283  289.5 280.58  289.5 277.5  C 289.5 274.42  291.92 272  295 272  Z " stroke-width="1" stroke="#797979" fill="none" />
  <path d="M 295 280.5  C 293.32 280.5  292 279.18  292 277.5  C 292 275.82  293.32 274.5  295 274.5  C 296.68 274.5  298 275.82  298 277.5  C 298 279.18  296.68 280.5  295 280.5  " fill-rule="nonzero" fill="#797979" stroke="none" />
</svg>