<?xml version="1.0" encoding="utf-8"?>
<svg version="1.1" xmlns:xlink="http://www.w3.org/1999/xlink" width="12px" height="12px" viewBox="162 10.5  12 12" xmlns="http://www.w3.org/2000/svg">
  <path d="M 168 10.5  C 171.36 10.5  174 13.14  174 16.5  C 174 19.86  171.36 22.5  168 22.5  C 164.64 22.5  162 19.86  162 16.5  C 162 13.14  164.64 10.5  168 10.5  Z " fill-rule="nonzero" fill="#ffffff" stroke="none" />
  <path d="M 168 11  C 171.08 11  173.5 13.42  173.5 16.5  C 173.5 19.58  171.08 22  168 22  C 164.92 22  162.5 19.58  162.5 16.5  C 162.5 13.42  164.92 11  168 11  Z " stroke-width="1" stroke="#1890ff" fill="none" />
  <path d="M 168 19.5  C 166.32 19.5  165 18.18  165 16.5  C 165 14.82  166.32 13.5  168 13.5  C 169.68 13.5  171 14.82  171 16.5  C 171 18.18  169.68 19.5  168 19.5  " fill-rule="nonzero" fill="#1890ff" stroke="none" />
</svg>