<?xml version="1.0" encoding="utf-8"?>
<svg version="1.1" xmlns:xlink="http://www.w3.org/1999/xlink" width="12px" height="12px" viewBox="287 10.5  12 12" xmlns="http://www.w3.org/2000/svg">
  <path d="M 293 10.5  C 296.36 10.5  299 13.14  299 16.5  C 299 19.86  296.36 22.5  293 22.5  C 289.64 22.5  287 19.86  287 16.5  C 287 13.14  289.64 10.5  293 10.5  Z " fill-rule="nonzero" fill="#ffffff" stroke="none" />
  <path d="M 293 11  C 296.08 11  298.5 13.42  298.5 16.5  C 298.5 19.58  296.08 22  293 22  C 289.92 22  287.5 19.58  287.5 16.5  C 287.5 13.42  289.92 11  293 11  Z " stroke-width="1" stroke="#1890ff" fill="none" />
  <path d="M 293 19.5  C 291.32 19.5  290 18.18  290 16.5  C 290 14.82  291.32 13.5  293 13.5  C 294.68 13.5  296 14.82  296 16.5  C 296 18.18  294.68 19.5  293 19.5  " fill-rule="nonzero" fill="#1890ff" stroke="none" />
</svg>