<?xml version="1.0" encoding="utf-8"?>
<svg version="1.1" xmlns:xlink="http://www.w3.org/1999/xlink" width="300px" height="27px" xmlns="http://www.w3.org/2000/svg">
  <defs>
    <mask fill="white" id="clip5">
      <path d="M 0 24.5454545454545  L 0 2.45454545454545  C 0 1.08  0.879999999999995 0  2 0  L 298 0  C 299.12 0  300 1.08  300 2.45454545454545  L 300 24.5454545454545  C 300 25.92  299.12 27  298 27  L 2 27  C 0.879999999999995 27  0 25.92  0 24.5454545454545  Z " fill-rule="evenodd" />
    </mask>
  </defs>
  <g transform="matrix(1 0 0 1 -166 -3 )">
    <path d="M 0 24.5454545454545  L 0 2.45454545454545  C 0 1.08  0.879999999999995 0  2 0  L 298 0  C 299.12 0  300 1.08  300 2.45454545454545  L 300 24.5454545454545  C 300 25.92  299.12 27  298 27  L 2 27  C 0.879999999999995 27  0 25.92  0 24.5454545454545  Z " fill-rule="nonzero" fill="#ffffff" stroke="none" transform="matrix(1 0 0 1 166 3 )" />
    <path d="M 0 24.5454545454545  L 0 2.45454545454545  C 0 1.08  0.879999999999995 0  2 0  L 298 0  C 299.12 0  300 1.08  300 2.45454545454545  L 300 24.5454545454545  C 300 25.92  299.12 27  298 27  L 2 27  C 0.879999999999995 27  0 25.92  0 24.5454545454545  Z " stroke-width="2" stroke="#cccccc" fill="none" transform="matrix(1 0 0 1 166 3 )" mask="url(#clip5)" />
  </g>
</svg>