<?xml version="1.0" encoding="utf-8"?>
<svg version="1.1" xmlns:xlink="http://www.w3.org/1999/xlink" width="12px" height="12px" viewBox="326 100.5  12 12" xmlns="http://www.w3.org/2000/svg">
  <path d="M 332 100.5  C 335.36 100.5  338 103.14  338 106.5  C 338 109.86  335.36 112.5  332 112.5  C 328.64 112.5  326 109.86  326 106.5  C 326 103.14  328.64 100.5  332 100.5  Z " fill-rule="nonzero" fill="#ffffff" stroke="none" />
  <path d="M 332 101  C 335.08 101  337.5 103.42  337.5 106.5  C 337.5 109.58  335.08 112  332 112  C 328.92 112  326.5 109.58  326.5 106.5  C 326.5 103.42  328.92 101  332 101  Z " stroke-width="1" stroke="#1890ff" fill="none" />
  <path d="M 332 109.5  C 330.32 109.5  329 108.18  329 106.5  C 329 104.82  330.32 103.5  332 103.5  C 333.68 103.5  335 104.82  335 106.5  C 335 108.18  333.68 109.5  332 109.5  " fill-rule="nonzero" fill="#1890ff" stroke="none" />
</svg>