<?xml version="1.0" encoding="utf-8"?>
<svg version="1.1" xmlns:xlink="http://www.w3.org/1999/xlink" width="12px" height="12px" viewBox="189 100.5  12 12" xmlns="http://www.w3.org/2000/svg">
  <path d="M 195 100.5  C 198.36 100.5  201 103.14  201 106.5  C 201 109.86  198.36 112.5  195 112.5  C 191.64 112.5  189 109.86  189 106.5  C 189 103.14  191.64 100.5  195 100.5  Z " fill-rule="nonzero" fill="#ffffff" stroke="none" />
  <path d="M 195 101  C 198.08 101  200.5 103.42  200.5 106.5  C 200.5 109.58  198.08 112  195 112  C 191.92 112  189.5 109.58  189.5 106.5  C 189.5 103.42  191.92 101  195 101  Z " stroke-width="1" stroke="#1890ff" fill="none" />
  <path d="M 195 109.5  C 193.32 109.5  192 108.18  192 106.5  C 192 104.82  193.32 103.5  195 103.5  C 196.68 103.5  198 104.82  198 106.5  C 198 108.18  196.68 109.5  195 109.5  " fill-rule="nonzero" fill="#1890ff" stroke="none" />
</svg>