<?xml version="1.0" encoding="utf-8"?>
<svg version="1.1" xmlns:xlink="http://www.w3.org/1999/xlink" width="12px" height="12px" viewBox="216 268.5  12 12" xmlns="http://www.w3.org/2000/svg">
  <path d="M 222 268.5  C 225.36 268.5  228 271.14  228 274.5  C 228 277.86  225.36 280.5  222 280.5  C 218.64 280.5  216 277.86  216 274.5  C 216 271.14  218.64 268.5  222 268.5  Z " fill-rule="nonzero" fill="#ffffff" stroke="none" />
  <path d="M 222 269  C 225.08 269  227.5 271.42  227.5 274.5  C 227.5 277.58  225.08 280  222 280  C 218.92 280  216.5 277.58  216.5 274.5  C 216.5 271.42  218.92 269  222 269  Z " stroke-width="1" stroke="#1890ff" fill="none" />
  <path d="M 222 277.5  C 220.32 277.5  219 276.18  219 274.5  C 219 272.82  220.32 271.5  222 271.5  C 223.68 271.5  225 272.82  225 274.5  C 225 276.18  223.68 277.5  222 277.5  " fill-rule="nonzero" fill="#1890ff" stroke="none" />
</svg>