<?xml version="1.0" encoding="utf-8"?>
<svg version="1.1" xmlns:xlink="http://www.w3.org/1999/xlink" width="312px" height="25px" xmlns="http://www.w3.org/2000/svg">
  <defs>
    <mask fill="white" id="clip6">
      <path d="M 0 25  L 0 0  L 64.2156830511283 0  L 312 0  L 312 25  L 71.6015124116382 25  L 0 25  Z " fill-rule="evenodd" />
    </mask>
  </defs>
  <g transform="matrix(1 0 0 1 -318 -629 )">
    <path d="M 0 25  L 0 0  L 64.2156830511283 0  L 312 0  L 312 25  L 71.6015124116382 25  L 0 25  Z " fill-rule="nonzero" fill="#ffffff" stroke="none" transform="matrix(1 0 0 1 318 629 )" />
    <path d="M 0 25  L 0 0  L 64.2156830511283 0  L 312 0  L 312 25  L 71.6015124116382 25  L 0 25  Z " stroke-width="2" stroke="#d7d7d7" fill="none" transform="matrix(1 0 0 1 318 629 )" mask="url(#clip6)" />
  </g>
</svg>