<?xml version="1.0" standalone="no"?><!DOCTYPE svg PUBLIC "-//W3C//DTD SVG 1.1//EN" "http://www.w3.org/Graphics/SVG/1.1/DTD/svg11.dtd">

<svg class="icon" viewBox="0 0 1024 1024" version="1.1" xmlns="http://www.w3.org/2000/svg">

<path d="M512 65.984C266.08 65.984 65.984 266.08 65.984 512c0 245.952 200.064 446.016 446.016 446.016 245.952 0 446.016-200.064 446.016-446.016C958.016 266.08 757.952 65.984 512 65.984zM512 672c-88.224 0-160-71.776-160-160s71.776-160 160-160 160 71.776 160 160S600.224 672 512 672z"  fill='#ffffff'/>

<path d="M512 960C264.96 960 64 759.04 64 512S264.96 64 512 64s448 200.96 448 448S759.04 960 512 960zM512 128C300.256 128 128 300.256 128 512c0 211.744 172.256 384 384 384 211.744 0 384-172.256 384-384C896 300.256 723.744 128 512 128z"  fill='#BCBCBC'/>

<g fill='none' stroke='black' stroke-width='150'>
<path d="M512 352c-88.224 0-160 71.776-160 160s71.776 160 160 160 160-71.776 160-160S600.224 352 512 352z" fill='#ffffff' stroke-linecap='round' stroke='#ffffff'/>
</g>


</svg>