<?xml version="1.0" encoding="utf-8"?>
<svg version="1.1" xmlns:xlink="http://www.w3.org/1999/xlink" width="12px" height="12px" viewBox="262 145.5  12 12" xmlns="http://www.w3.org/2000/svg">
  <path d="M 268 145.5  C 271.36 145.5  274 148.14  274 151.5  C 274 154.86  271.36 157.5  268 157.5  C 264.64 157.5  262 154.86  262 151.5  C 262 148.14  264.64 145.5  268 145.5  Z " fill-rule="nonzero" fill="#ffffff" stroke="none" />
  <path d="M 268 146  C 271.08 146  273.5 148.42  273.5 151.5  C 273.5 154.58  271.08 157  268 157  C 264.92 157  262.5 154.58  262.5 151.5  C 262.5 148.42  264.92 146  268 146  Z " stroke-width="1" stroke="#797979" fill="none" />
  <path d="M 268 154.5  C 266.32 154.5  265 153.18  265 151.5  C 265 149.82  266.32 148.5  268 148.5  C 269.68 148.5  271 149.82  271 151.5  C 271 153.18  269.68 154.5  268 154.5  " fill-rule="nonzero" fill="#797979" stroke="none" />
</svg>