<?xml version="1.0" encoding="utf-8"?>
<svg version="1.1" xmlns:xlink="http://www.w3.org/1999/xlink" width="35px" height="19px" xmlns="http://www.w3.org/2000/svg">
  <g transform="matrix(1 0 0 1 -186 -152 )">
    <path d="M 0.87158203125 13.188671875  C 0.29052734375 12.016015625  0 10.7864583333333  0 9.5  C 0 8.21354166666667  0.29052734375 6.983984375  0.87158203125 5.811328125  C 1.45263671875 4.638671875  2.230224609375 3.629296875  3.204345703125 2.783203125  C 4.178466796875 1.937109375  5.340576171875 1.26171875  6.690673828125 0.757031249999999  C 8.040771484375 0.25234375  9.45638020833333 0  10.9375 0  L 24.0625 0  C 25.5436197916667 0  26.959228515625 0.25234375  28.309326171875 0.757031249999999  C 29.659423828125 1.26171875  30.821533203125 1.937109375  31.795654296875 2.783203125  C 32.769775390625 3.629296875  33.54736328125 4.638671875  34.12841796875 5.811328125  C 34.70947265625 6.983984375  35 8.21354166666667  35 9.5  C 35 10.7864583333333  34.70947265625 12.016015625  34.12841796875 13.188671875  C 33.54736328125 14.361328125  32.769775390625 15.370703125  31.795654296875 16.216796875  C 30.821533203125 17.062890625  29.659423828125 17.73828125  28.309326171875 18.24296875  C 26.959228515625 18.74765625  25.5436197916667 19  24.0625 19  L 10.9375 19  C 9.45638020833333 19  8.040771484375 18.74765625  6.690673828125 18.24296875  C 5.340576171875 17.73828125  4.178466796875 17.062890625  3.204345703125 16.216796875  C 2.230224609375 15.370703125  1.45263671875 14.361328125  0.87158203125 13.188671875  Z M 20.670166015625 16.498828125  C 21.746826171875 16.899609375  22.8776041666667 17.1  24.0625 17.1  C 25.2473958333333 17.1  26.378173828125 16.899609375  27.454833984375 16.498828125  C 28.531494140625 16.098046875  29.462890625 15.55625  30.2490234375 14.8734375  C 31.03515625 14.190625  31.658935546875 13.381640625  32.120361328125 12.446484375  C 32.581787109375 11.511328125  32.8125 10.5291666666667  32.8125 9.5  C 32.8125 8.47083333333333  32.581787109375 7.488671875  32.120361328125 6.553515625  C 31.658935546875 5.618359375  31.03515625 4.809375  30.2490234375 4.1265625  C 29.462890625 3.44375  28.531494140625 2.901953125  27.454833984375 2.501171875  C 26.378173828125 2.100390625  25.2473958333333 1.9  24.0625 1.9  C 22.8776041666667 1.9  21.746826171875 2.100390625  20.670166015625 2.501171875  C 19.593505859375 2.901953125  18.662109375 3.44375  17.8759765625 4.1265625  C 17.08984375 4.809375  16.466064453125 5.618359375  16.004638671875 6.553515625  C 15.543212890625 7.488671875  15.3125 8.47083333333333  15.3125 9.5  C 15.3125 10.5291666666667  15.543212890625 11.511328125  16.004638671875 12.446484375  C 16.466064453125 13.381640625  17.08984375 14.190625  17.8759765625 14.8734375  C 18.662109375 15.55625  19.593505859375 16.098046875  20.670166015625 16.498828125  Z " fill-rule="nonzero" fill="#1890ff" stroke="none" transform="matrix(1 0 0 1 186 152 )" />
  </g>
</svg>