<svg t="1712036601655" class="icon" viewBox="0 0 1024 1024" version="1.1" xmlns="http://www.w3.org/2000/svg" p-id="1616" width="200" height="200"><path d="M91.532436 435.927055c4.2858-35.204783 15.61255599-68.266667 30.000598-100.716293 1.836771-3.979671 5.204185-10.102242-0.918385-16.530941-1.836771-1.836771-1.836771-20.204484 5.510314-20.510613 18.061584-1.224514 22.959641-15.61255599 27.55156899-26.020927 8.265471-18.97997 24.184155-32.449626 35.81704001-47.75605401 11.632885-15.000299 29.388341-29.082212 45.613154-42.24573999 27.245441-21.735127 55.409268-41.939611 86.940509-56.633781 7.347085-3.367414 6.734828-11.939013 15.918684-13.469657 37.653812-6.4287 73.776981-18.97996999 108.981764-32.755755 1.530643-1.224514 2.1429-2.755157 2.449029-4.59192801 0.306129-2.1429 1.530643-3.97967101 3.673542-5.20418499 3.367414-0.612257 5.20418499 0 2.755157 3.673542-1.836771 2.755157-7.04095701 3.367414-5.204185 8.265471 5.204185-0.918386 11.020628 2.449028 14.69417-4.591928 1.836771-3.67354301 9.183857-4.2858 10.408371-1.83677099 4.2858 7.959342 10.408371 4.2858 15.612556 3.97967099 14.388042-0.612257 29.388341-3.979671 43.164125-1.836771 14.69417 2.44902801 29.388341 4.591928 44.082512 5.816442 13.775785 1.224514 27.55157 4.591928 41.021225 8.265471 2.449028 0.612257 12.245142 0.306129 6.4287 9.183856-3.673543 5.510314-3.061286 5.816442 3.979671 10.7145 3.061286 0.306129 6.122571 0.306129 9.183857 0.61225701 3.061286 0.918386 6.122571 2.1429 9.183856 3.06128499 3.061286 2.1429 6.122571 3.979671 10.408371 3.061286 1.530643 5.510314 7.653214 3.367414 11.020628 6.122571 0-0.918386 0-1.836771 0.306128-2.449029-2.449028-3.367414-6.122571-4.2858-9.796113-5.204185-1.224514-5.204185-5.510314-3.367414-8.877728-3.979671-2.1429-3.061286-5.510314-2.755157-8.265471-3.367414-2.449028-2.14290001-5.204185-2.14290001-8.265471-2.449029 0.306129-0.306129 0.306129-0.612257 0.61225699-1.224514 7.040957-9.489985 20.204484 1.836771 27.24544101-7.959342 0.306129-0.612257-0.306129 2.1429 0 3.36741399 2.755157 9.183857 22.041256 16.530942 33.36801201 12.85739901 3.97967101 1.530643 9.796114 1.224514 8.87772799 8.57159899-0.306129 4.2858 3.367414 7.347085 7.347085 9.18385701 13.163528 6.4287 25.714798 14.081913 38.266069 21.735127 21.735127 13.469656 43.16412599 26.939312 59.388938 47.449925 7.959342 9.796114 16.22481301 19.592227 27.85769899 25.40867 12.551271 13.469656 25.102541 27.245441 34.59252601 43.470254 5.20418499 8.877728 11.326756 14.388042 22.653512 8.877728 4.591928-2.1429 10.714499-1.53064299 15.306428-4.898057-10.714499-22.653513-10.714499-22.653513-22.347384-19.286098-2.1429 0-5.51031401 1.836771-3.979671-3.061286 6.122571-3.979671 7.653214-7.653214 3.061285-15.306427-7.347085-11.939013-16.83707-21.735127-26.020927-32.14349799-32.755755-38.266069-72.24633801-68.572795-116.328849-92.75695101-10.408371-5.81644201-19.592227-20.510613-35.510911-12.55127-1.83677099 1.530643-4.2858 2.449028-6.4287 3.367414 3.061286-2.44902801 5.816442-5.20418499 3.979671-10.408371-3.67354301-5.816442-10.714499-3.061286-16.224813-5.81644301-15.000299-7.959342-30.306726-17.449327-49.286697-13.16352699-2.449028 0.612257-8.265471-1.530643-8.26547-2.449029 0-9.796114-7.959342-7.347085-12.8574-8.26547-18.673842-3.67354301-37.653812-7.040957-56.327653-9.18385699-25.10254101-3.061286-49.898954-6.734828-75.307623 2.14289999-13.469656 4.591928-29.082212-4.591928-44.082511-1.530643-47.449925 9.79611399-93.67533601 22.653513-137.145591 44.69476799-34.286398 17.449327-66.123767 38.572197-95.512107 62.75635301-18.97996999 15.918685-36.735426 34.286398-52.96024 53.572497-15.306428 18.367713-24.184155 41.021226-40.408968 59.08280999-11.939013 13.469656-17.449327 32.755755-26.020927 49.28669601-1.836771 3.36741399-1.836771 6.122571 2.449029 6.4287 14.69417 0.918386 4.2858 6.4287 1.836771 10.102242-5.816442 9.183857-17.755456 11.632885-21.428999 23.878027-7.959342 25.102541-14.69417 50.51121099-19.286098 76.532137-0.612257 3.979671-0.612257 7.653214 1.530642 9.489985 6.122571 4.898057 33.061883-6.4287 33.980269-12.857399zM919.30403601 636.135127c4.591928-4.2858 4.898057-8.877728 0.91838598-15.612556-2.1429 6.122571-3.673543 10.408371-5.20418599 15.000299-3.367414 10.102242-6.734828 20.204484-11.326756 34.286398 11.939013-11.632885 15.612556-22.041256 15.61255601-33.674141zM900.324066 678.686996c1.836771 0.918386 3.367414 1.530643 3.061285 3.979671 2.44902801-3.061286 5.204185-7.347085 1.224514-9.489985-3.36741399-1.836771-4.2858 2.449028-4.285799 5.510314z" fill="#cd4230" p-id="1617"></path><path d="M732.25949199 208.779671c9.489985-3.979671 9.796114-11.632885 8.26547101-19.898356-7.040957-17.755456-26.020927-20.816741-38.572198-31.53124-6.122571-4.898057-9.489985-3.673543-13.469656 2.755157-10.408371 17.75545601-21.735127 34.898655-32.755755 52.347982-3.367414 5.204185-2.755157 8.265471 2.755157 11.632885 5.816442 3.67354301 8.877728 4.591928 13.775785-2.755157 3.67354301-5.816442 4.591928-18.367713 14.69417-15.306428 9.489985 3.061286 20.51061299 8.265471 17.449328 22.347384-3.367414 6.122571-10.102242 11.632885-6.73482799 18.97997 1.530643 3.367414 7.347085 4.89805699 11.02062699 7.040957 3.061286-5.51031401 7.347085-10.408371 7.653214-17.143199 6.734828-8.26547099 3.061286-22.95964099 15.91868499-28.469955z m-19.592227-4.898057c-8.265471-2.449028-18.673842-4.898057-19.89835599-14.69417-0.612257-3.979671 4.89805699-15.306428 10.408371-12.857399 7.653214 3.061286 18.673842 5.816442 19.592227 14.388042-0.306129 9.796114-3.367414 15.000299-10.10224201 13.163527zM857.466069 268.474738c-0.306129 0-0.306129 0 0 0-0.306129 0-0.306129 0.306129 0 0-0.306129 0.306129 0 0 0 0zM878.588939 730.42272c2.1429-3.979671 3.979671-7.959342 6.122571-11.939013 5.204185-4.2858 7.959342-10.102242 8.877728-16.530942 3.97967101-1.530643 3.367414-4.89805699 3.367414-7.959342-1.224514 0-2.449028-0.306129-3.367414-0.306129-0.918386 1.224514-1.530643 2.449028-2.449029 3.67354299-4.2858 2.755157-5.51031401 7.040957-6.428699 11.63288501-6.42869999 3.061286-4.898057 11.020628-9.183857 15.612556-4.898057 2.44902801-5.816442 7.040957-6.428699 11.632885-3.367414 2.449028-5.204185 5.510314-5.816443 9.79611399 1.224514 0.306129 2.755157 0.612257 3.979671 0.61225701 1.836771-2.1429 3.673543-4.591928 5.510314-6.734828 3.367414-2.449028 4.898057-5.51031401 5.816443-9.489986zM629.400299 143.880419c7.653214 2.449028 15.306428 5.204185 22.65351301 7.959342 5.816442 2.1429 9.796114 0 11.32675599-5.816443 1.836771-6.122571-1.836771-7.653214-6.734828-9.183856-11.326756-3.367414-22.653513-7.959342-33.980269-11.326756-8.571599-2.449028-15.306428 0.306129-18.673842 9.183856-6.4287 18.061584-12.245142 36.123169-18.673841 54.184753-2.1429 6.122571-0.612257 8.877728 5.816442 10.7145 14.081913 3.97967101 27.55157 9.183857 41.327354 13.775784 5.20418499 1.836771 8.571599 1.224514 11.326757-5.510313 3.36741399-8.877728-3.061286-7.959342-7.040957-9.489986-7.653214-2.755157-15.306428-4.89805699-22.959641-7.347085-5.816442-1.836771-8.877728-3.061286-5.816443-11.326756 3.061286-7.959342 5.204185-9.183857 12.551271-6.12257099 5.816442 2.44902801 12.551271 3.979671 18.673842 5.81644199 7.653214-3.367414 7.653214-8.265471 2.755157-14.081913-5.816442-1.836771-11.326756-4.2858-17.143199-5.816442-5.510314-1.224514-8.877728-2.44902801-7.040957-9.796114 2.44902801-7.040957 6.122571-7.653214 11.632885-5.816442zM719.402093 284.699552c-13.163528-2.449028-24.796413-2.1429-32.143498-11.939014-2.449028-3.367414-6.734828-4.591928-7.347085 0.918386-1.836771 13.775785-13.163528 17.449327-25.40867 22.653512 12.245142 3.367414 18.367713 8.571599 17.449327 20.510613-0.306129 2.449028-0.612257 15.612556 8.265471 7.95934301 10.102242-8.877728 19.898356-7.040957 32.755755-3.36741401-1.224514-13.775785-9.489985-26.327055 6.4287-36.735426z" fill="#cd4230" p-id="1618"></path><path d="M851.03736901 255.923468c-3.367414-4.2858-2.449028-13.469656-13.46965601-11.326756 4.2858 6.4287 6.4287 12.551271 13.163528 15.918684 0.918386 3.673543 2.755157 6.734828 6.428699 8.265471 1.836771-6.42869999-2.1429-9.489985-6.12257099-12.857399zM572.460389 932.467564c14.69417-1.224514 29.082212-3.367414 42.857997-8.877728 3.979671-0.918386 8.571599 0.918386 11.939013-3.061286 2.1429-0.306129 4.2858-0.918386 6.122571-1.224514 3.67354301-1.836771 9.183857-1.530643 8.877728-7.653214-3.673543 1.530643-8.877728-2.1429-11.632885 3.061286-3.061286 0.918386-7.040957-0.918386-9.183856 3.061285-4.89805699 1.530643-11.020628-2.449028-15.30642801 3.061286-11.326756 0.918386-22.959641 1.530643-33.98026899 5.510314-11.939013 3.367414-25.714798-3.673543-36.429297 6.734828 12.245142 4.89805699 24.490284 2.755157 36.735426-0.612257zM628.788042 794.09745899c-1.836771-3.979671-6.122571-2.1429-9.489985-2.14289999-3.061286 0-6.122571 0-9.18385699 0.306129-4.591928 1.836771-1.53064299 10.714499-9.18385601 10.102242-1.224514-3.367414 1.224514-8.265471-3.367414-10.408371-7.959342-3.061286-10.714499-13.469656-22.041256-15.306427 0.918386 23.878027-16.530942 30.000598-37.95994 34.898654 18.97996999 7.040957 33.061883 14.69417 32.755755 34.898655 0 11.632885 7.347085 6.73482799 10.102242 3.061285 13.775785-17.14319899 28.776084-9.796114 46.225411-2.449028-1.530643-5.81644201-1.530643-11.326756-3.979671-14.69417-7.04095701-10.408371-7.040957-19.592227 1.836771-28.469956 2.449028-2.755157 6.122571-6.122571 4.2858-9.79611301z" fill="#cd4230" p-id="1619"></path><path d="M905.83438 758.892676c0.612257-9.183857 0.306129-9.489985 8.571599-14.081914 3.061286-1.836771 3.061286-5.20418499 4.591928-7.347085 8.877728-10.714499 8.877728-25.714798 15.612556-36.735426 17.143199-26.63318401 23.26577-56.021525 31.225112-86.328251-5.204185 0.612257-8.877728 0.918386-12.245142 0.918386-14.081913 1.224514-23.26577 6.122571-26.327055 22.653512-3.673543 22.041256-13.163528 42.24574-24.796412 61.531839-15.306428 20.51061299-31.225112 40.715097-32.143498 67.960538-10.102242 3.979671-15.306428 14.388042-23.571898 20.510613-2.755157 2.1429-7.347085 5.81644201-5.204186 7.653214 3.979671 3.67354301 6.734828-0.918386 9.183857-3.979672 1.530643-0.306129 3.367414-0.612257 4.898056-0.918385 1.530643-0.306129 2.755157-0.306129 4.2858-0.612257-0.918386 0.306129-1.530643 0.918386-2.449028 1.22451401-16.22481301 8.877728-28.469955 23.571898-44.38864 31.83736899-17.449327 9.183857-30.306726 23.878027-47.143797 33.061884-15.918685 13.163528-33.368012 24.184155-52.347982 32.449626-60.001196 32.449626-124.59432 47.75605401-192.248729 49.898954-8.571599 0.306129-12.857399 4.2858-17.449328 9.796113-0.918386 0.918386-2.1429 1.836771-3.061285 3.061286-0.612257-1.530643 0.918386-2.449028 1.224514-3.979672 0.306129-1.530643 0-2.755157-0.612257-3.979671-11.939013-9.489985-26.939312-7.653214-40.715097-9.489985-56.327653-7.04095701-109.287892-24.184155-158.574589-52.960239-0.918386-0.612257-2.1429-1.224514-3.061286-1.836771l0.306129 0c13.469656 2.1429 23.571898 12.857399 37.041555 15.306427 10.102242 7.040957 21.12287 11.632885 33.368011 12.857399 7.347085 4.591928 14.69417 9.183857 23.571899 9.183857 4.898057 2.44902801 9.489985 4.898057 15.306427 3.367414 2.755157 3.061286 6.4287 2.449028 9.796114 2.449028 5.510314 4.2858 11.939013 5.510314 18.673842 3.367414 2.1429 0.918386 4.2858 1.530643 6.122571 2.449029l0.918385 0.612257 1.224514 0c4.89805699 3.367414 10.714499 2.44902801 16.224814 2.449028 14.081913 3.97967101 28.46995501 3.367414 42.857997 2.755157l12.55127 0c4.898057-0.612257 10.714499 3.36741399 14.69417-2.449028-1.836771 0-3.673543-0.306129-5.510313-0.306129-7.653214-6.122571-16.530942-1.530643-24.796413-2.449028-11.326756-0.918386-22.653513-2.1429-33.67414-3.061286-3.061286-0.306129-5.816442-0.612257-8.877728-1.224514-3.367414-5.204185-8.265471-2.14290001-12.551271-2.1429-3.061286-0.306129-6.122571-0.306129-9.183856-0.612257-3.97967101-5.510314-10.408371-0.612257-15.306428-3.367414-2.449028-4.2858-6.4287-1.224514-9.48998501-2.1429-4.898057-1.224514-10.102242-2.449028-15.00029899-3.673542-8.265471-6.122571-18.061584-6.73482799-27.245441-9.796114-9.489985-6.122571-19.898356-9.796114-30.918984-11.63288501-13.163528-12.245142-31.225112-15.306428-45.919282-24.79641199-1.836771-3.36741399-4.898057-5.51031401-8.877728-6.42869999-6.4287-5.510314-11.632885-13.163528-21.735127-11.93901301l0-0.306129-0.306129 0.306129c-2.449028-11.632885-15.000299-13.775785-21.428998-21.735127-1.836771-3.979671-4.591928-7.347085-9.183857-8.265471-9.489985-6.122571-12.857399-18.673842-24.490284-22.34738401-3.979671-3.061286-3.979671-9.489985-9.48998501-11.32675699-3.673543-5.204185-5.510314-12.245142-16.53094099-11.632885 5.20418499 5.816442 9.183857 10.102242 12.857399 14.38804199 3.061286 5.51031401 5.816442 11.32675601 12.55127 13.16352801 3.367414 4.591928 6.734828 9.183857 9.796114 13.775785 4.898057 3.979671 10.102242 7.959342 15.000299 11.939013 1.83677099 1.530643 3.673543 2.755157 5.204185 4.2858 6.4287 6.122571 12.857399 11.939013 18.97997 18.061584 1.224514 1.530643 2.755157 1.836771 4.591929 1.224514 0.306129-0.306129 0.612257-0.306129 0.918385-0.612257-1.224514 1.836771-1.224514 3.367414-0.306128 4.898057-2.44902801-1.836771-4.89805699-3.367414-7.347086-5.204185-12.245142-7.653214-23.878027-16.530942-37.041554-22.653513l-0.612257 0c3.061286-3.979671 0.306129-6.122571-3.367414-8.265471-13.469656-5.510314-22.347384-15.306428-28.776084-29.388341-2.755157-5.816442-6.4287-12.551271-13.775785-12.857399-9.489985-0.612257-18.367713 1.836771-27.245441 5.204186-0.612257 0.306129-0.918386 3.061286-0.306128 3.979671 14.388042 16.530942 23.571898 37.653812 43.470254 48.674439 4.898057-4.591928-0.306129-15.306428 9.489985-13.775784 5.816442 0.918386 11.326756 4.591928 17.143199 7.040956-2.1429 2.755157-4.591928 4.2858-8.265471 5.510314-7.040957 2.755157-1.224514 11.020628-4.591928 15.918685 10.408371-0.918386 10.714499 9.489985 15.918684 14.69416999 17.755456 17.14319899 39.184454 29.388341 59.388939 43.16412601 7.040957 4.898057 14.388042 9.183857 23.26577 3.979671 4.898057-3.061286 8.26547099 3.061286 7.959342 3.673542-5.510314 12.85739901 6.4287 11.632885 11.632885 14.694171 22.347384 12.245142 47.449925 17.143199 70.715695 27.245441 7.040957 3.061286 13.163528 2.449028 19.592227 0 7.347085-3.97967101 7.959342 1.836771 8.877728 6.428699 69.491181 12.551271 138.982362 23.878027 205.718386-12.245142 4.591928 1.836771 5.51031401-1.836771 6.734828-4.285799 0.918386 4.2858-9.489985 6.734828-3.061286 12.857399 51.735725-13.163528 101.634679-32.449626 144.492676-63.980867 78.368909-56.93991 107.451121-88.471151 112.349178-113.573692-4.591928 1.836771-8.571599 3.673543-12.857399 5.204185-1.836771-0.306129-3.36741399 0-4.898057 0.306129 0.612257-0.612257 0.918386-1.530643 1.530643-2.449029l7.347085-14.69417c15.000299 8.877728 30.918984 2.449028 31.531241-10.102242zM274.903438 864.507025c0.918386 0.306129 2.1429 0.612257 3.061285 0.612258 0.306129 0.918386 0.918386 1.836771 1.224515 2.449028-1.224514-0.918386-2.755157-1.836771-4.2858-3.061286z m10.102242 7.040957c1.530643 0.306129 3.061286 0.306129 5.20418501 0 0 0.306129-0.306129 0.612257-0.30612801 0.918386 0.306129 1.224514 0.918386 2.1429 1.53064301 3.061285-2.14290001-1.530643-4.2858-2.755157-6.42870001-3.979671z" fill="#cd4230" p-id="1620"></path><path d="M357.864275 779.09716c7.040957 7.040957 18.061584 10.102242 16.530942 22.347384-1.224514 9.796114 4.591928 9.796114 9.183856 4.898057 9.796114-10.102242 19.592227-6.734828 31.837369-1.224514-1.836771-13.469656-13.163528-24.490284 1.530643-34.592526 3.061286-2.1429-0.918386-6.122571-3.979671-5.204186-11.939013 2.449028-19.898356-3.673543-26.939312-11.632885-3.061286-3.36741399-5.510314-0.612257-5.510314 0.612257 2.449028 16.530942-13.163528 17.755456-22.653513 24.796413zM720.320478 618.379671c-58.16442501 10.408371-115.410463 26.633184-173.881016 37.041555-51.429596 9.183857-102.553064 20.204484-153.676532 30.30672601-47.756054 9.489985-95.512108 19.286099-142.962033 29.69446999-53.572496 11.939013-107.45112101 22.653513-161.329746 33.368011-7.347085 1.530643-11.020628 3.673543-7.959342 10.408371 2.449028 5.204185-1.530643 16.530942 11.326756 14.081913 21.12287-4.591928 42.24574-9.489985 63.36861-13.469656 60.613453-12.245142 121.533034-23.878027 182.146487-36.123169 58.470553-11.939013 116.328849-25.102541 174.799402-36.429297 51.429596-10.102242 102.553064-20.204484 153.676532-30.918984 44.38864-9.489985 89.083408-18.97997 133.472048-28.776083 63.674738-14.08191299 127.961734-25.40867 191.63647299-38.572198 12.551271-2.449028 3.673543-12.245142 3.97967101-18.67384101 0.306129-6.122571-1.836771-8.26547099-9.48998501-6.12257099-14.081913 4.2858-29.082212 5.816442-43.47025399 8.877728-73.776981 14.69417-147.24783299 31.837369-221.637071 45.307025zM789.811659 828.689985c-6.734828-0.918386-8.877728 5.20418499-12.245142 8.877728l-18.367713 15.612556c-8.571599 3.061286-15.000299 9.183857-21.12287 15.306428 10.102242-0.306129 17.44932699-5.510314 24.490284-11.93901399l3.061286 0c4.2858-3.673543 8.265471-7.653214 12.55127-11.32675601 7.040957-2.1429 9.489985-9.489985 15.000299-13.469656 6.122571-3.367414 11.939013-6.734828 12.857399-14.694171 8.877728-2.1429 14.69417-7.040957 18.061585-15.306427 5.816442 0 6.122571-5.816442 8.877728-8.877728 4.898057-3.67354301 9.489985-7.653214 11.632885-13.469657 0-3.67354301-1.530643-3.97967101-4.2858-2.142899-3.67354301 3.979671-7.040957 7.959342-10.714499 11.939013-3.061286 3.061286-6.122571 6.122571-9.183857 8.877728-6.42869999 5.816442-13.775785 10.714499-18.367713 18.673842-4.2858 3.673543-8.265471 7.653214-12.245142 11.939013zM578.58296 122.45142c0.306129-4.898057-1.224514-6.734828-6.4287-7.653214-11.939013-1.836771-23.878027-3.673543-36.123169-2.1429-0.918386 0.612257-1.224514 1.530643-1.836771 2.1429-3.979671 0-6.734828 3.979671-10.714499 2.75515701-9.489985 3.979671-4.591928 12.245142-5.510314 18.97996998l-0.918386 11.93901401c-2.755157 5.204185 2.449028 11.326756-1.836771 16.224813-0.306129 0.612257-0.306129 1.224514 0 1.836771 3.67354301 3.979671 7.347085 3.97967101 11.02062799 0 10.102242-15.918685 25.40867-7.347085 38.57219701-7.653214 5.20418499 0 7.653214-0.612257 7.653214-5.510313 0.306129-3.979671 0.918386-7.959342-5.51031401-7.959343-8.571599-0.306129-17.143199-3.367414-25.40866999-2.449028-10.714499 1.224514-5.20418499-5.816442-6.122571-9.489985 0.612257-2.755157-0.612257-6.122571 3.673543-6.734828 10.408371 1.224514 21.12287 2.449028 31.53124 3.673542 5.816442 0.918386 7.959342-2.1429 7.959343-7.959342zM746.341405 680.829895c-1.836771-3.67354301-6.122571-2.1429-7.040957 0.918386-3.061286 13.163528-14.69417001 17.143199-27.245441 25.10254101 16.530942 4.898057 21.735127 15.306428 19.898356 30.61285499 11.020628-6.122571 20.204484-14.69417 32.755755-7.040957 2.755157 1.530643 8.571599 0 6.122571-5.204185-5.81644201-12.245142 0-22.653513 6.4287-35.510912-13.469656 2.755157-24.490284 3.67354301-30.918984-8.877728zM710.830493 888.078924c3.979671-2.755157 7.959342-5.204185 11.939014-7.959343 3.67354301 0 7.347085-0.612257 8.265471-5.204185l-8.265471 0c-4.2858 2.755157-8.265471 5.510314-12.551271 8.265471-1.224514 1.836771-0.918386 3.367414 0.612257 4.898057zM700.422123 892.058595c0.918386-2.449028-0.306129-3.673543-2.44902899-4.2858-3.979671 1.836771-7.959342 3.979671-11.93901301 5.816443-8.265471-1.530643-12.245142 5.81644201-18.673842 8.571599-7.34708501 0-13.775785 2.1429-17.449327 8.877728 8.571599 0.306129 16.530942-2.1429 23.878027-6.122571 5.816442-0.306129 10.408371-3.673543 15.306427-6.122571 3.97967101-1.530643 8.877728-2.1429 11.326757-6.734828z m-28.163827 12.245142c0.612257 0 0.918386 0.306129 1.224514 0.612257-0.612257-0.306129-0.918386-0.612257-1.224514-0.612257zM408.987743 207.861286c4.898057-2.44902801 9.489985-3.673543 4.591928-10.102243-7.653214-0.306129-13.775785-7.040957-22.041255-5.510314 0.612257 5.816442 4.2858 9.796114 7.347085 14.388042 2.755157 4.591928 5.510314 3.673543 10.102242 1.224515zM320.82272 135.614948l0 0.612257s0.306129 0 0.306129-0.306129l-0.306129-0.306128zM564.807175 177.554559c-6.4287-1.224514-12.857399-1.224514-19.592227-0.306129 0 6.734828 3.061286 11.32675601 9.183856 14.388042 2.449028 0.612257 4.898057 1.224514 7.347085 1.530643 4.2858 0.612257 9.489985 6.122571 11.326757-3.061285 1.530643-8.265471-1.530643-11.326756-8.265471-12.551271zM355.109118 121.226906c-6.122571 0-10.714499 3.061286-15.306427 6.428699 0 1.224514 0 2.44902801 0.306128 3.673543 5.816442-0.612257 11.020628-2.1429 15.000299-6.734828l27.55157-9.183857c5.204185-2.14290001 11.326756-1.530643 15.306427-6.428699 14.69417 0.306129 28.469955-4.2858 42.24574-7.959342 0.612257 0.306129 1.224514 0 2.1429-0.612258 11.632885-1.224514 23.26577-2.449028 35.204783-3.673542 9.489985 1.836771 18.367713-0.918386 27.55157-2.755157-1.224514-7.653214-6.4287-3.367414-10.408371-3.673543-8.571599 1.224514-17.755456-5.51031401-26.327055 1.224514-10.408371-0.612257-20.816741 0.612257-30.612855 3.673543-4.89805699 1.530643-0.306129 3.061286 0.918385 4.2858-14.69417001-3.367414-28.163827-0.918386-40.715097 7.347085-6.122571 3.061286-15.612556-3.979671-19.286099 6.122571-8.265471 2.14290001-17.14319899 1.836771-23.571898 8.265471zM320.516592 136.227205l-23.878027 12.85739901c11.020628 0.306129 21.735127 0.612257 23.878027-12.85739901zM780.627803 188.881315c4.898057 8.877728 15.306428 11.326756 21.12287 18.673842 1.224514 3.673543 4.591928 3.979671 7.347085 5.510314 7.959342 9.183857 15.918685 18.367713 25.102541 29.082212 1.530643-8.87772801-3.367414-11.939013-4.591928-16.224813-7.959342-2.755157-10.102242-12.857399-18.367713-15.306428-0.918386-3.061286-3.061286-4.898057-5.816443-6.122571-7.040957-6.42869999-14.081913-12.85739901-21.428998-19.286098-3.061286-4.2858-7.040957-7.653214-12.551271-8.265471-11.326756-11.939013-25.714798-19.286099-39.796711-27.245441-9.183857-7.959342-19.286099-14.081913-30.918984-18.061584-3.367414-4.2858-7.959342-2.449028-12.245142-3.061286l0.918386 0.918386-0.612257 0.918385c1.530643 3.673543 4.898057 3.67354301 7.959342 4.2858 9.183857 5.204185 16.224813 15.000299 28.163827 15.000299 14.388042 10.102242 28.469955 20.510613 42.85799701 30.612855 4.591928 2.449028 8.877728 5.51031401 12.85739899 8.571599zM587.766816 100.104036c3.673543 3.673543 8.265471 2.14290001 12.245142 2.449028 5.510314 4.591928 11.632885 3.979671 18.97997001 1.836772-4.2858-3.367414-6.122571-8.571599-11.93901301-4.898057-6.122571-2.449028-12.245142-5.204185-18.97997-3.36741399-5.204185-3.97967101-11.632885-1.836771-17.449328-2.75515701-3.367414-2.14290001-6.734828-3.061286-10.40837-2.1429-4.898057-0.306129-9.489985-0.612257-14.388042-0.918386-2.755157 0.612257-5.816442 0.918386-7.040957 3.979671 2.755157 3.061286 5.816442 3.67354301 9.489985 1.836772 6.122571 0.306129 12.245142 0.306129 18.367713 0.612257 5.816442 6.734828 14.081913 0.918386 21.12287 3.367414zM39.490583 498.071151c37.653812-8.571599 76.226009-13.163528 113.573692-22.347384 68.87892401-17.143199 139.28849-28.16382701 208.47354301-44.082511 33.674141-7.653214 67.960538-13.775785 102.24693499-20.20448499 60.001196-11.020628 119.696263-25.40867 179.391331-37.95994002 59.388939-12.245142 118.777877-24.184155 178.166816-36.12316899 43.776383-8.87772801 87.552765-18.367713 131.32914801-26.939312 3.979671-0.918386 5.204185-0.918386 5.81644199-5.510314 2.1429-13.163528-5.510314-21.12287-18.97997-17.449327-43.164126 11.020628-87.246637 18.367713-130.716891 27.24544001-62.144096 12.551271-124.288191 26.633184-186.432287 39.79671199-65.817638 13.775785-131.635277 27.245441-197.759043 40.10283999C348.37429 409.293871 272.45441 426.743199 195.92227199 440.825112c-53.572496 9.796114-106.226607 22.653513-159.49297499 33.674141-8.571599 1.836771-11.326756 5.204185-10.40837 14.081913 0 7.653214 0.306129 12.551271 13.469656 9.489985zM170.513602 269.699253c-6.734828 3.67354301-7.653214 9.183857-9.796113 13.775784 7.959342-0.612257 9.489985-5.816442 9.796113-13.775784zM137.14559 320.210463c-3.67354301 7.040957-7.347085 14.081913-11.326756 21.735127 15.000299 0.306129 11.632885-11.632885 15.000299-18.673841 3.367414-0.612257 3.061286-3.36741399 3.367414-5.510314l-2.755157-6.4287c-1.224514 3.061286-2.755157 6.122571-4.2858 8.877728zM116.634978 385.415845c3.673543-6.122571 4.2858-12.857399 5.510313-19.592228 0.918386-3.061286-0.306129-3.673543-3.061285-2.755157-3.979671 4.2858-5.816442 9.183857-6.122571 15.000299-3.673543 7.347085-6.122571 15.306428-5.204185 23.878027l1.224514 0.918386c-0.612257 0-1.224514-0.306129-1.224514-0.918386-6.122571 0.918386-3.061286 5.816442-4.2858 8.877728-2.44902801 3.061286-2.755157 6.734828-2.449028 10.714499 0.306129 0.306129 0.612257 0.612257 0.918385 1.224515-0.306129-0.306129-0.612257-0.612257-0.918385-1.224515-0.612257 0.612257-0.918386 1.224514-0.612258 2.1429-2.755157 3.367414-2.1429 7.653214-2.449028 11.632885 0 1.836771 0 4.2858 2.755157 3.979671 3.673543-0.306129 2.755157-3.367414 2.755157-5.816442 0.306129-2.449028 4.2858-3.061286 2.449028-6.122571l0.91838601-9.183857c3.367414-4.89805699 2.755157-10.408371 1.83677099-15.61255599 6.4287-3.97967101 5.510314-11.326756 7.959343-17.14319801zM443.274141 134.696562c7.959342-6.734828 19.592227-9.796114 28.469955 2.1429 4.2858 5.816442 10.714499 0.918386 15.000299-1.530643 2.1429-1.224514-0.918386-6.734828-3.67354299-9.796113-10.408371-11.632885-22.959641-15.000299-37.95994001-10.102243-14.388042 4.591928-23.878027 14.388042-25.40867 28.776084-1.836771 15.000299-0.306129 30.306726 11.632885 41.939611 3.97967101 1.530643 7.347085-0.918386 10.714499-2.449028 4.2858 7.653214 11.326756 11.939013 20.816742 11.939013 9.489985 0.918386 16.224813-11.632885 22.347384-9.489985 18.061584 6.73482799 11.939013-3.979671 10.714499-12.245142-0.918386-4.898057-2.449028-9.79611399-2.44902799-14.69417 0-12.24514199-7.04095701-12.245142-15.91868501-9.79611399-4.2858 0-9.183857-2.755157-12.55127 2.44902899-6.734828 0.306129-6.73482799 5.510314-5.20418601 9.489985 2.14290001 5.510314 7.347085 2.14290001 11.32675701 2.449028 2.755157-2.755157 2.14290001-5.510314 0.612257-8.265471l3.367414 0c0.612257 3.979671 6.122571 7.040957 2.755157 11.939014-5.204185 16.530942-18.673842 11.632885-30.306727 11.632885-2.755157-3.979671-6.734828-7.959342-7.959342-12.551271-3.67354301-10.714499-5.816442-23.878027 3.673543-31.837369zM392.456801 151.839761c-2.755157-10.102242-10.714499-13.469656-19.898356-12.551271-17.449327 1.836771-34.898655 8.571599-45.613154 20.204485-5.816442 6.42869999 7.040957 21.735127 12.551271 32.449626 0.306129 2.449028 0 5.20418499 3.061286 6.428699 2.755157 2.449028 6.122571-1.836771 9.183856 0.918386-1.836771 2.1429-5.510314 1.530643-6.122571 4.898057 2.14290001 5.510314 4.898057 11.020628 6.42869999 16.83707 2.1429 8.877728 6.122571 10.102242 14.38804101 6.4287 10.102242-4.2858 4.2858-9.183857 2.449029-14.694171-2.1429-6.122571-7.040957-10.714499-7.040957-17.449327 3.061286-1.224514 5.816442-2.44902801 8.877728-3.67354299 2.1429-0.918386 3.979671-2.1429 6.122571-3.06128501l5.816443-1e-8c3.36741399-3.061286 0.612257-6.4287 0.918385-9.48998499 5.20418499-1.836771 3.061286-5.20418499 1.836772-8.5716 0.306129-0.306129 0.918386-0.612257 1.224514-0.918385 4.591928-5.204185 4.2858-11.632885 5.816442-17.755456z m-13.163527 18.367713c-0.612257 3.367414-3.061286 4.898057-5.816443 6.122571-7.347085-2.14290001-16.224813 15.91868501-22.347384-1.836771-1.530643-4.2858-8.265471-9.79611399 0.612257-12.8574 7.653214-2.449028 15.306428-12.551271 24.184155-2.449028 2.44902801 3.061286 4.591928 6.734828 3.367415 11.020628zM518.275635 237.24962601c-9.489985 1.224514-13.163528 0.918386-15.91868399 2.44902899-11.32675601 5.816442-19.28609901 3.061286-28.46995501-5.510314-6.122571-5.510314-7.040957-13.775785-14.388042-18.36771299-7.959342-4.898057-13.469656-7.959342-15.306428 4.28579998-3.061286 18.97996999-12.857399 31.225112-32.449626 34.59252601-3.673543 0.612257-7.34708501 3.061286-12.245142 5.204185 2.449028 2.755157 3.061286 4.2858 4.28580001 4.898057 21.12287 9.183857 36.123169 22.041256 29.69446899 48.062182-1.224514 4.591928 1.530643 5.510314 3.979671 6.12257099 3.673543 0.918386 5.510314-2.14290001 6.4287-4.89805699 5.816442-16.530942 19.592227-14.69417 32.44962601-14.081913 10.102242 0.612257 20.204484 2.755157 32.14349799 4.591928-11.632885-23.878027-17.143199-45.919283 9.796113-67.34828099zM308.27145 245.515097c8.571599-5.816442 13.775785-9.796114 23.26577-2.1429 7.347085 5.81644201 12.857399-2.755157 15.918684-6.428699 4.591928-6.122571-4.591928-6.122571-7.347085-7.959343-18.061584-11.632885-37.041555-22.041256-55.103139-33.67414-7.347085-4.89805699-10.408371 0.612257-15.306427 3.06128501-5.816442 3.061286-5.510314 6.4287-3.673543 11.93901399 6.73482799 19.286099 12.85739901 38.878326 19.286099 58.164424 1.224514 5.204185 4.2858 9.183857 9.796113 9.183857 4.898057-0.306129 8.265471-3.367414 7.347085-8.87772799-3.367414-9.489985-4.2858-16.224813 5.816443-23.26577001z m-12.245142-8.265471c-10.408371-2.449028-5.816442-13.469656-10.102242-20.510613 7.347085 3.673543 17.143199 4.2858 18.97997 13.469657 0.612257 2.1429-6.122571 7.653214-8.877728 7.040956zM292.65889399 155.819432c0-0.612257-2.449028-2.755157-3.06128599-2.755157-3.979671 2.1429-9.796114 3.061286-7.959342 11.632885 4.898057-2.755157 10.102242-3.367414 11.02062799-8.877728zM225.92287 210.310314c4.591928-4.591928 11.020628-7.347085 13.469656-14.081913 8.571599-3.673543 14.69417-10.102242 20.816742-16.530942 7.653214-2.449028 14.69417-6.122571 18.367713-14.69417099-11.020628-1.836771-15.612556 6.122571-21.428999 11.63288499-8.265471 2.449028-12.551271 9.489985-18.367713 15.000299-5.204185 5.204185-12.551271 7.653214-15.612556 15.000299-6.73482799 5.510314-15.918685 9.183857-18.061584 18.97997-5.204185 2.755157-11.020628 5.510314-11.326757 14.388042-4.89805699 1.530643-7.653214 4.2858-10.102242 7.347085-0.306129 0.306129-0.612257 0.612257-0.612257 0.918386l-7.347085 10.102242c5.20418499 1.836771 7.040957-0.306129 8.26547101-4.285799 3.979671-3.979671 11.020628-6.122571 11.32675599-14.388042 6.4287-2.755157 10.714499-6.122571 12.551271-11.93901401 6.4287-5.510314 14.081913-9.79611399 18.061584-17.44932699zM201.432586 308.577578c4.898057 8.877728 12.245142 14.69417001 21.428998 18.367713 15.000299 6.122571 28.776084 4.2858 41.021226-6.428699 11.020628-9.489985 15.000299-27.245441 9.489985-40.10284-2.1429-4.898057-4.2858-13.469656-11.326756-10.102242-4.591928 2.1429-11.939013 8.265471-4.591928 16.83706999 5.816442 7.040957 2.755157 15.000299-2.755157 20.51061301-5.204185 5.510314-11.939013 7.653214-20.510613 4.591928-9.79611399-3.367414-15.000299-11.632885-22.959641-16.83707-0.306129-3.979671-0.612257-8.265471-0.612258-12.245142 2.1429-11.020628 8.877728-16.22481301 20.204485-15.306428 7.959342 0.612257 12.857399-6.734828 12.857399-12.245142 0-5.20418499-7.653214-6.122571-13.469656-5.816442-16.530942 0.612257-26.633184 10.102242-33.061884 24.490284 0.918386 1.530643 2.449028 2.755157 4.2858 3.673542 1.530643 0.612257 2.44902801 1.836771 3.67354301 3.061286 0.306129 6.4287-1.836771 13.163528-1.22451501 19.59222701-0.306129 0.612257-0.918386 1.224514-1.224514 1.83677099-0.918386 2.1429-2.1429 3.979671-1.224514 6.122571zM255.31121099 355.109118c0 13.163528-15.612556 19.898356-7.34708499 33.061883 3.673543 2.755157 0.918386 5.816442 0.306128 8.877728-2.755157 4.898057-3.673543 10.102242-0.306128 14.388042 1.224514 1.530643 7.347085 1.530643 7.959342-1.224514 2.755157-13.469656 10.102242-5.510314 16.530942-4.591928 4.591928 0.918386 8.877728 4.591928 15.000299 0.918385-10.408371-12.551271-3.367414-24.184155 4.591928-37.347683-16.530942 6.734828-25.714798-3.979671-36.73542601-14.081913z" fill="#cd4230" p-id="1621"></path></svg>