<?xml version="1.0" encoding="utf-8"?>
<svg version="1.1" xmlns:xlink="http://www.w3.org/1999/xlink" width="11px" height="5px" xmlns="http://www.w3.org/2000/svg">
  <g transform="matrix(1 0 0 1 -706 -376 )">
    <path d="M 10.7021951219512 0.0571707317072594  L 10.8921463414634 0.195121951219505  C 10.9968829590649 0.271317044192443  10.9968829590649 0.394829297271087  10.8921463414634 0.471024390244025  L 5.67519512195125 4.26536585365849  C 5.62487193101065 4.30200527668896  5.55658540802655 4.32259251832511  5.48537804878053 4.32259251832511  C 5.41417068953436 4.32259251832511  5.34588416655042 4.30200527668896  5.29556097560982 4.26536585365849  L 0.0786097560975207 0.471024390244025  C -0.0261268615039683 0.394829297271087  -0.0261268615039683 0.271317044192443  0.0786097560975207 0.195121951219505  L 0.268292682926898 0.0571707317072594  C 0.373060935764414 -0.0190013538209257  0.542890283747667 -0.0190013538209257  0.64765853658534 0.0571707317072594  L 5.48524390243904 3.57541463414637  L 10.3230975609756 0.0571707317072594  C 10.4278658138132 -0.0190013538209257  10.5976951617965 -0.0190013538209257  10.7024634146342 0.0571707317072594  Z " fill-rule="nonzero" fill="#909399" stroke="none" fill-opacity="0.647058823529412" transform="matrix(1 0 0 1 706 376 )" />
  </g>
</svg>