<?xml version="1.0" encoding="utf-8"?>
<svg version="1.1" xmlns:xlink="http://www.w3.org/1999/xlink" width="70px" height="32px" xmlns="http://www.w3.org/2000/svg">
  <g transform="matrix(1 0 0 1 -526 -150 )">
    <path d="M 527 154  A 3 3 0 0 1 530 151 L 592 151  A 3 3 0 0 1 595 154 L 595 178  A 3 3 0 0 1 592 181 L 530 181  A 3 3 0 0 1 527 178 L 527 154  Z " fill-rule="nonzero" fill="#ffffff" stroke="none" />
    <path d="M 526.5 154  A 3.5 3.5 0 0 1 530 150.5 L 592 150.5  A 3.5 3.5 0 0 1 595.5 154 L 595.5 178  A 3.5 3.5 0 0 1 592 181.5 L 530 181.5  A 3.5 3.5 0 0 1 526.5 178 L 526.5 154  Z " stroke-width="1" stroke="#888181" fill="none" stroke-opacity="0.972549019607843" />
  </g>
</svg>