<?xml version="1.0" encoding="utf-8"?>
<svg version="1.1" xmlns:xlink="http://www.w3.org/1999/xlink" width="12px" height="12px" viewBox="353 206.5  12 12" xmlns="http://www.w3.org/2000/svg">
  <path d="M 359 206.5  C 362.36 206.5  365 209.14  365 212.5  C 365 215.86  362.36 218.5  359 218.5  C 355.64 218.5  353 215.86  353 212.5  C 353 209.14  355.64 206.5  359 206.5  Z " fill-rule="nonzero" fill="#ffffff" stroke="none" />
  <path d="M 359 207  C 362.08 207  364.5 209.42  364.5 212.5  C 364.5 215.58  362.08 218  359 218  C 355.92 218  353.5 215.58  353.5 212.5  C 353.5 209.42  355.92 207  359 207  Z " stroke-width="1" stroke="#797979" fill="none" />
  <path d="M 359 215.5  C 357.32 215.5  356 214.18  356 212.5  C 356 210.82  357.32 209.5  359 209.5  C 360.68 209.5  362 210.82  362 212.5  C 362 214.18  360.68 215.5  359 215.5  " fill-rule="nonzero" fill="#797979" stroke="none" />
</svg>