<svg t="1716797437865" class="icon" viewBox="0 0 1024 1024" version="1.1" xmlns="http://www.w3.org/2000/svg" p-id="3323" width="200" height="200"><path d="M527.786667 284.16a18.773333 18.773333 0 0 0-7.68-5.12c-0.853333-0.426667-1.706667-0.426667-2.986667-0.426667A10.154667 10.154667 0 0 0 512 277.333333c-5.546667 0-11.093333 2.133333-15.36 6.4l-256 256c-8.533333 8.533333-8.533333 21.76 0 30.293334s21.76 8.533333 30.293333 0L490.666667 349.866667V896c0 11.946667 9.386667 21.333333 21.333333 21.333333s21.333333-9.386667 21.333333-21.333333V350.293333l219.306667 219.306667a20.693333 20.693333 0 0 0 29.866667 0c8.533333-8.533333 8.533333-21.76 0-30.293333l-254.72-255.146667zM256 149.333333h512c11.946667 0 21.333333-9.386667 21.333333-21.333333s-9.386667-21.333333-21.333333-21.333333H256c-11.946667 0-21.333333 9.386667-21.333333 21.333333s9.386667 21.333333 21.333333 21.333333z" fill="#666666" p-id="3324"></path></svg>