<?xml version="1.0" encoding="utf-8"?>
<svg version="1.1" xmlns:xlink="http://www.w3.org/1999/xlink" width="13px" height="13px" xmlns="http://www.w3.org/2000/svg">
  <g transform="matrix(1 0 0 1 -1203 -178 )">
    <path d="M 12.488125 0.0358854166666665  C 12.2339930555556 -0.0273090277777777  12.0152951388889 0.0327256944444444  11.83203125 0.215989583333334  L 6.5 5.54802083333333  L 1.16796875 0.215989583333334  C 1.02668402777778 0.0891493055555558  0.868020833333333 0.0257291666666669  0.691979166666666 0.0257291666666669  C 0.515937499999999 0.0257291666666669  0.360659722222222 0.092760416666667  0.226145833333333 0.226822916666667  C 0.0916319444444447 0.360885416666667  0.0246006944444446 0.516163194444445  0.0250520833333336 0.69265625  C 0.0255034722222221 0.869149305555556  0.0889236111111116 1.0278125  0.2153125 1.16864583333333  L 5.54734375 6.50067708333333  L 0.2153125 11.8327083333333  C 0.0320486111111122 12.0159722222222  -0.0279861111111104 12.2346701388889  0.0352083333333332 12.4888020833333  C 0.0984027777777779 12.7429340277778  0.253680555555556 12.9015972222222  0.501041666666666 12.9647916666667  C 0.748402777777778 13.0279861111111  0.97048611111111 12.9679513888889  1.16729166666667 12.7846875  L 6.49932291666667 7.45265625  L 11.8313541666667 12.7846875  C 11.9726388888889 12.9115277777778  12.1313020833333 12.9749479166667  12.30734375 12.9749479166667  C 12.4833854166667 12.9749479166667  12.6386631944444 12.9079166666667  12.7731770833333 12.7738541666667  C 12.9076909722222 12.6397916666667  12.9747222222222 12.4845138888889  12.9742708333333 12.3080208333333  C 12.9738194444444 12.1315277777778  12.9103993055556 11.9728645833333  12.7840104166667 11.83203125  L 7.45197916666667 6.5  L 12.7840104166667 1.16796875  C 12.9672743055556 0.984704861111112  13.0273090277778 0.766006944444445  12.9641145833333 0.511875  C 12.9009201388889 0.257743055555556  12.7422569444444 0.0990798611111112  12.488125 0.0358854166666665  Z " fill-rule="nonzero" fill="#000000" stroke="none" fill-opacity="0.690196078431373" transform="matrix(1 0 0 1 1203 178 )" />
  </g>
</svg>