<?xml version="1.0" encoding="utf-8"?>
<svg version="1.1" xmlns:xlink="http://www.w3.org/1999/xlink" width="15px" height="15px" xmlns="http://www.w3.org/2000/svg">
  <g transform="matrix(1 0 0 1 -353 -144 )">
    <path d="M 13.9346590909091 2.5  L 0.804332386363636 2.5  L 2.06143465909091 13.85546875  C 2.06143465909091 14.48828125  2.75923295454545 15  3.62215909090909 15  L 11.1328125 15  C 11.9957386363636 15  12.6935369318182 14.48828125  12.6935369318182 13.85546875  L 13.9346590909091 2.5  Z M 5.08167613636364 12.8515625  L 4.08558238636364 12.8515625  L 3.72869318181818 3.75  L 4.71413352272727 3.75  L 5.08167613636364 12.8515625  Z M 7.83025568181818 3.75  L 7.83025568181818 12.8515625  L 6.87144886363636 12.8515625  L 6.87144886363636 3.75  L 7.83025568181818 3.75  Z M 10.9730113636364 3.75  L 10.6161221590909 12.8515625  L 9.62535511363636 12.8515625  L 9.98757102272727 3.75  L 10.9730113636364 3.75  Z M 14.7017045454545 2.109375  C 14.7017045454545 1.421875  14.0411931818182 1.09375  13.1036931818182 1.09375  L 11.1860795454545 1.09375  L 9.78515625 0.1953125  C 9.58806818181818 0.0703125  9.33771306818182 0  9.08203125 0  L 5.63032670454546 0  C 5.36931818181818 0  5.11363636363636 0.0703125  4.91654829545455 0.1953125  L 3.515625 1.09375  L 1.59801136363636 1.09375  C 0.660511363636364 1.09375  0 1.421875  0 2.109375  L 14.7017045454545 2.109375  Z " fill-rule="nonzero" fill="#bbccdf" stroke="none" transform="matrix(1 0 0 1 353 144 )" />
  </g>
</svg>