<?xml version="1.0" encoding="utf-8"?>
<svg version="1.1" xmlns:xlink="http://www.w3.org/1999/xlink" width="14px" height="14px" xmlns="http://www.w3.org/2000/svg">
  <g transform="matrix(1 0 0 1 -683 -145 )">
    <path d="M 11.56640625 8.92602206359507  C 11.8276909722222 8.3112697382652  11.9583333333333 7.66774821544452  11.9583333333333 6.99545749513303  C 11.9583333333333 6.02033311702358  11.6940104166667 5.12697382651958  11.1653645833333 4.31537962362103  L 4.29296875 11.1563919532771  C 5.12543402777778 11.6954358641575  6.02777777777778 11.9649578195977  7 11.9649578195977  C 7.67447916666667 11.9649578195977  8.31705729166667 11.8332251784555  8.927734375 11.5697598961713  C 9.53841145833333 11.3062946138871  10.0655381944444 10.9534934025525  10.5091145833333 10.5113562621674  C 10.9526909722222 10.0692191217824  11.3051215277778 9.54077438892494  11.56640625 8.92602206359507  Z M 2.04166666666667 6.99545749513303  C 2.04166666666667 7.97663854639844  2.31206597222222 8.88211118321436  2.85286458333333 9.71187540558079  L 9.734375 2.86177806619079  C 8.9140625 2.31062080899849  8.00260416666667 2.03504218040234  7 2.03504218040234  C 6.10069444444444 2.03504218040234  5.27126736111111 2.25611075059485  4.51171875 2.69824789097988  C 3.75217013888889 3.14038503136491  3.15060763888889 3.74302401038287  2.70703125 4.50616482803374  C 2.26345486111111 5.26930564568462  2.04166666666667 6.09906986805105  2.04166666666667 6.99545749513303  Z M 13.4440104166667 4.2744970798183  C 13.8146701388889 5.1375730045425  14 6.04455980964741  14 6.99545749513303  C 14 7.94635518061865  13.8146701388889 8.85485615401254  13.4440104166667 9.72096041531473  C 13.0733506944444 10.5870646766169  12.5766059027778 11.3320354747999  11.9537760416667 11.9558728098637  C 11.3309461805556 12.5797101449275  10.5865885416667 13.0763573437162  9.720703125 13.4458144062297  C 8.85481770833333 13.8152714687432  7.94791666666667 14  7 14  C 6.05208333333333 14  5.14518229166667 13.8152714687432  4.279296875 13.4458144062297  C 3.41341145833333 13.0763573437162  2.66905381944445 12.5797101449275  2.04622395833333 11.9558728098637  C 1.42339409722222 11.3320354747999  0.926649305555556 10.5870646766169  0.555989583333333 9.72096041531473  C 0.185329861111111 8.85485615401254  0 7.94635518061865  0 6.99545749513303  C 0 6.04455980964741  0.185329861111111 5.1375730045425  0.555989583333333 4.2744970798183  C 0.926649305555556 3.41142115509409  1.42339409722222 2.66796452520009  2.04622395833333 2.04412719013628  C 2.66905381944445 1.42028985507246  3.41341145833333 0.923642656283796  4.279296875 0.55418559377028  C 5.14518229166667 0.184728531256758  6.05208333333333 0  7 0  C 7.94791666666667 0  8.85481770833333 0.184728531256758  9.720703125 0.55418559377028  C 10.5865885416667 0.923642656283796  11.3309461805556 1.42028985507246  11.9537760416667 2.04412719013628  C 12.5766059027778 2.66796452520009  13.0733506944444 3.41142115509409  13.4440104166667 4.2744970798183  Z " fill-rule="nonzero" fill="#ee2424" stroke="none" transform="matrix(1 0 0 1 683 145 )" />
  </g>
</svg>