<?xml version="1.0" encoding="utf-8"?>
<svg version="1.1" xmlns:xlink="http://www.w3.org/1999/xlink" width="29px" height="13px" xmlns="http://www.w3.org/2000/svg">
  <g transform="matrix(1 0 0 1 -1474 -260 )">
    <path d="M 15.739013671875 8.516015625  C 16.121337890625 7.876171875  16.3125 7.20416666666667  16.3125 6.5  C 16.3125 5.79583333333333  16.121337890625 5.123828125  15.739013671875 4.483984375  C 15.356689453125 3.844140625  14.83984375 3.290625  14.1884765625 2.8234375  C 13.537109375 2.35625  12.765380859375 1.985546875  11.873291015625 1.711328125  C 10.981201171875 1.437109375  10.0442708333333 1.3  9.0625 1.3  C 8.08072916666667 1.3  7.143798828125 1.437109375  6.251708984375 1.711328125  C 5.359619140625 1.985546875  4.587890625 2.35625  3.9365234375 2.8234375  C 3.28515625 3.290625  2.768310546875 3.844140625  2.385986328125 4.483984375  C 2.003662109375 5.123828125  1.8125 5.79583333333333  1.8125 6.5  C 1.8125 7.20416666666667  2.003662109375 7.876171875  2.385986328125 8.516015625  C 2.768310546875 9.155859375  3.28515625 9.709375  3.9365234375 10.1765625  C 4.587890625 10.64375  5.359619140625 11.014453125  6.251708984375 11.288671875  C 7.143798828125 11.562890625  8.08072916666667 11.7  9.0625 11.7  C 10.0442708333333 11.7  10.981201171875 11.562890625  11.873291015625 11.288671875  C 12.765380859375 11.014453125  13.537109375 10.64375  14.1884765625 10.1765625  C 14.83984375 9.709375  15.356689453125 9.155859375  15.739013671875 8.516015625  Z M 26.614013671875 8.516015625  C 26.996337890625 7.876171875  27.1875 7.20416666666667  27.1875 6.5  C 27.1875 5.79583333333333  26.996337890625 5.123828125  26.614013671875 4.483984375  C 26.231689453125 3.844140625  25.71484375 3.290625  25.0634765625 2.8234375  C 24.412109375 2.35625  23.640380859375 1.985546875  22.748291015625 1.711328125  C 21.856201171875 1.437109375  20.9192708333333 1.3  19.9375 1.3  L 14.4716796875 1.3  C 15.5950520833333 1.909375  16.4847819010417 2.66770833333333  17.140869140625 3.575  C 17.7969563802083 4.48229166666667  18.125 5.45729166666667  18.125 6.5  C 18.125 7.54270833333333  17.7969563802083 8.51770833333333  17.140869140625 9.425  C 16.4847819010417 10.3322916666667  15.5950520833333 11.090625  14.4716796875 11.7  L 19.9375 11.7  C 20.9192708333333 11.7  21.856201171875 11.562890625  22.748291015625 11.288671875  C 23.640380859375 11.014453125  24.412109375 10.64375  25.0634765625 10.1765625  C 25.71484375 9.709375  26.231689453125 9.155859375  26.614013671875 8.516015625  Z M 28.27783203125 3.976171875  C 28.75927734375 4.778515625  29 5.61979166666667  29 6.5  C 29 7.38020833333333  28.75927734375 8.221484375  28.27783203125 9.023828125  C 27.79638671875 9.826171875  27.152099609375 10.516796875  26.344970703125 11.095703125  C 25.537841796875 11.674609375  24.574951171875 12.13671875  23.456298828125 12.48203125  C 22.337646484375 12.82734375  21.1647135416667 13  19.9375 13  L 9.0625 13  C 7.83528645833333 13  6.662353515625 12.82734375  5.543701171875 12.48203125  C 4.425048828125 12.13671875  3.462158203125 11.674609375  2.655029296875 11.095703125  C 1.847900390625 10.516796875  1.20361328125 9.826171875  0.72216796875 9.023828125  C 0.24072265625 8.221484375  0 7.38020833333333  0 6.5  C 0 5.61979166666667  0.24072265625 4.778515625  0.72216796875 3.976171875  C 1.20361328125 3.173828125  1.847900390625 2.483203125  2.655029296875 1.904296875  C 3.462158203125 1.325390625  4.425048828125 0.86328125  5.543701171875 0.517968749999999  C 6.662353515625 0.17265625  7.83528645833333 0  9.0625 0  L 19.9375 0  C 21.1647135416667 0  22.337646484375 0.17265625  23.456298828125 0.517968749999999  C 24.574951171875 0.86328125  25.537841796875 1.325390625  26.344970703125 1.904296875  C 27.152099609375 2.483203125  27.79638671875 3.173828125  28.27783203125 3.976171875  Z " fill-rule="nonzero" fill="#aaaaaa" stroke="none" transform="matrix(1 0 0 1 1474 260 )" />
  </g>
</svg>