<?xml version="1.0" encoding="utf-8"?>
<svg version="1.1" xmlns:xlink="http://www.w3.org/1999/xlink" width="703px" height="41px" xmlns="http://www.w3.org/2000/svg">
  <g transform="matrix(1 0 0 1 -322 -124 )">
    <path d="M 323 128  A 3 3 0 0 1 326 125 L 1021 125  A 3 3 0 0 1 1024 128 L 1024 161  A 3 3 0 0 1 1021 164 L 326 164  A 3 3 0 0 1 323 161 L 323 128  Z " fill-rule="nonzero" fill="#fefeff" stroke="none" />
    <path d="M 322.5 128  A 3.5 3.5 0 0 1 326 124.5 L 1021 124.5  A 3.5 3.5 0 0 1 1024.5 128 L 1024.5 161  A 3.5 3.5 0 0 1 1021 164.5 L 326 164.5  A 3.5 3.5 0 0 1 322.5 161 L 322.5 128  Z " stroke-width="1" stroke="#707070" fill="none" stroke-opacity="0.250980392156863" />
  </g>
</svg>