<?xml version="1.0" encoding="utf-8"?>
<svg version="1.1" xmlns:xlink="http://www.w3.org/1999/xlink" width="16px" height="14px" xmlns="http://www.w3.org/2000/svg">
  <g transform="matrix(1 0 0 1 -255 -130 )">
    <path d="M 5.34554883318928 3.00252808988764  C 5.26050129645635 3.10674157303371  5.33725151253241 3.25814606741573  5.476231633535 3.25814606741573  L 7.00916162489196 3.25814606741573  L 7.00916162489196 9.91011235955056  C 7.00916162489196 9.99662921348314  7.0838375108038 10.0674157303371  7.17510803802938 10.0674157303371  L 8.41970613656007 10.0674157303371  C 8.51097666378565 10.0674157303371  8.58565254969749 9.99662921348314  8.58565254969749 9.91011235955056  L 8.58565254969749 3.25814606741573  L 10.1227312013829 3.25814606741573  C 10.2617113223855 3.25814606741573  10.3384615384615 3.10674157303371  10.2534140017286 3.00449438202247  L 7.93016421780466 0.216292134831461  C 7.8637856525497 0.135674157303371  7.73517718236819 0.135674157303371  7.66879861711322 0.216292134831461  L 5.34554883318928 3.00252808988764  Z M 15.5574762316335 9.47752808988764  C 15.5574762316335 9.39101123595506  15.4828003457217 9.32022471910112  15.3915298184961 9.32022471910112  L 14.1469317199654 9.32022471910112  C 14.0556611927398 9.32022471910112  13.980985306828 9.39101123595506  13.980985306828 9.47752808988764  L 13.980985306828 12.5056179775281  L 1.61797752808989 12.5056179775281  L 1.61797752808989 9.47752808988764  C 1.61797752808989 9.39101123595506  1.54330164217805 9.32022471910112  1.45203111495246 9.32022471910112  L 0.20743301642178 9.32022471910112  C 0.116162489196197 9.32022471910112  0.0414866032843559 9.39101123595506  0.0414866032843559 9.47752808988764  L 0.0414866032843559 13.3707865168539  C 0.0414866032843559 13.7188202247191  0.338115816767503 14  0.705272255834053 14  L 14.8936905790838 14  C 15.2608470181504 14  15.5574762316335 13.7188202247191  15.5574762316335 13.3707865168539  L 15.5574762316335 9.47752808988764  Z " fill-rule="nonzero" fill="#fdfdfd" stroke="none" transform="matrix(1 0 0 1 255 130 )" />
  </g>
</svg>