<?xml version="1.0" encoding="utf-8"?>
<svg version="1.1" xmlns:xlink="http://www.w3.org/1999/xlink" width="16px" height="14px" xmlns="http://www.w3.org/2000/svg">
  <g transform="matrix(1 0 0 1 -356 -130 )">
    <path d="M 5.40629370629371 7.14318181818182  L 7.75594405594406 9.96306818181818  C 7.82307692307692 10.0446022727273  7.95314685314686 10.0446022727273  8.02027972027972 9.96306818181818  L 10.3699300699301 7.14517045454545  C 10.4559440559441 7.04176136363636  10.3783216783217 6.88863636363636  10.2377622377622 6.88863636363636  L 8.68321678321678 6.88863636363636  L 8.68321678321678 0.159090909090909  C 8.68321678321678 0.0715909090909082  8.60769230769231 0  8.51538461538462 0  L 7.25664335664336 0  C 7.16433566433567 0  7.08881118881119 0.0715909090909082  7.08881118881119 0.159090909090909  L 7.08881118881119 6.88664772727273  L 5.53846153846154 6.88664772727273  C 5.3979020979021 6.88664772727273  5.32027972027972 7.03977272727272  5.40629370629371 7.14318181818182  Z M 15.7342657342657 9.42613636363636  C 15.7342657342657 9.33863636363637  15.6587412587413 9.26704545454546  15.5664335664336 9.26704545454546  L 14.3076923076923 9.26704545454546  C 14.2153846153846 9.26704545454546  14.1398601398601 9.33863636363637  14.1398601398601 9.42613636363636  L 14.1398601398601 12.4886363636364  L 1.63636363636364 12.4886363636364  L 1.63636363636364 9.42613636363636  C 1.63636363636364 9.33863636363637  1.56083916083916 9.26704545454546  1.46853146853147 9.26704545454546  L 0.209790209790209 9.26704545454546  C 0.117482517482518 9.26704545454546  0.041958041958041 9.33863636363637  0.041958041958041 9.42613636363636  L 0.041958041958041 13.3636363636364  C 0.041958041958041 13.715625  0.341958041958041 14  0.713286713286714 14  L 15.0629370629371 14  C 15.4342657342657 14  15.7342657342657 13.715625  15.7342657342657 13.3636363636364  L 15.7342657342657 9.42613636363636  Z " fill-rule="nonzero" fill="#fbfbfb" stroke="none" transform="matrix(1 0 0 1 356 130 )" />
  </g>
</svg>