<svg t="1726102588271" class="icon" viewBox="0 0 1024 1024" version="1.1" xmlns="http://www.w3.org/2000/svg" p-id="7614" width="200" height="200"><path d="M875.2 168.5c28.6 0 51.8 24 51.8 53.5v579.7c0 29.5-23.1 53.4-51.8 53.4H150c-28.6 0-51.8-23.9-51.8-53.4V221.9c0-29.5 23.1-53.4 51.8-53.4h725.2z m-70.9 445.2H636.5c-15.4 0-28 11.7-28 26s12.6 26 28 26h167.8c15.4 0 28-11.7 28-26s-12.6-26-28-26zM383.9 513.5c-63.7 0-190.9 34-190.9 101.4v24.7c0 14.3 12.5 26 28 26h326c15.4 0 28-11.6 28-26v-24.7c-0.2-67.4-127.4-101.4-191.1-101.4z m420.4-0.9H636.5c-15.4 0-28 11.7-28 26s12.6 26 28 26h167.8c15.4 0 28-11.7 28-26s-12.6-26-28-26z m-418.7-202c-53.4-0.8-97.2 39.2-97.2 88.8 0 38.2 25.9 73.1 64.9 84.4 64.5 18.5 123.7-24.5 125.9-81.1 2-48.7-41.2-91.2-93.6-92.1z m418.7 101H636.5c-15.4 0-28 11.7-28 26s12.6 26 28 26h167.8c15.4 0 28-11.7 28-26s-12.6-26-28-26z m0-101H636.5c-15.4 0-28 11.7-28 26s12.6 26 28 26h167.8c15.4 0 28-11.7 28-26s-12.6-26-28-26z" fill="#1890FF" p-id="7615"></path></svg>