<svg t="1726103020771" class="icon" viewBox="0 0 1024 1024" version="1.1" xmlns="http://www.w3.org/2000/svg" p-id="17851" width="200" height="200"><path d="M166.16911 515.126288c0-139.751721-0.04605-279.503443 0.020467-419.250047C166.220277 41.629261 191.501764 16.368241 245.963644 16.342657c163.610773-0.086983 327.221546-0.07675 490.832319-0.005117 52.829661 0.020467 79.743367 25.127987 79.820117 77.594364 0.414451 282.056663 0.419567 564.113326-0.01535 846.16999-0.081867 51.274192-27.00069 76.918963-77.896247 76.970129-165.314625 0.163734-330.629251 0.163734-495.943876 0.005117-50.649958-0.051167-76.514745-26.396922-76.555679-77.58413C166.097477 798.037436 166.16911 656.581862 166.16911 515.126288zM786.494219 401.899405c0-101.407365 0.0921-202.81473-0.04605-304.216979-0.056283-40.109609-11.983251-52.10821-51.299775-52.12356-162.761405-0.051167-325.52281-0.051167-488.284215-0.005117-39.173257 0.010233-51.739809 12.484685-51.760276 52.072393-0.097217 204.518583-0.086983 409.032049-0.005117 613.550632 0.010233 31.237296 1.918753 32.956498 33.693299 32.961615 174.693489 0.040933 349.381862 0.040933 524.075351 0 31.86153-0.005117 33.534682-1.478719 33.580733-32.905332C786.591436 608.121841 786.499335 505.010623 786.494219 401.899405zM490.934652 778.583841c-88.574746 0-177.15461 0.3377-265.729356-0.2456-21.387698-0.143267-31.037745 7.040544-30.469795 29.681827 1.115435 44.259231 0.010233 88.56963 0.440034 132.854445 0.317234 32.787648 14.331804 46.935252 46.490101 46.965952 166.082127 0.158617 332.164253 0.1535 498.24638 0.005117 32.838815-0.0307 46.116584-13.272653 46.464518-46.577085 0.455384-43.43033-0.854485-86.901594 0.501434-130.296108 0.767501-24.524219-8.488562-33.023015-32.767181-32.762065C666.390526 779.141558 578.660031 778.578724 490.934652 778.583841z" p-id="17852" fill="#707070"></path><path d="M491.69192 918.744896c-20.057363 0.363284-39.904942-18.113027-40.67756-37.878739-0.946585-24.084185 14.178304-40.529176 38.037356-41.358077 25.762454-0.895418 41.839045 14.464838 41.890211 40.017509C530.977744 899.526668 512.117684 918.371379 491.69192 918.744896z" p-id="17853" fill="#707070"></path></svg>