<svg t="1726103073663" class="icon" viewBox="0 0 1024 1024" version="1.1" xmlns="http://www.w3.org/2000/svg" p-id="19994" width="200" height="200"><path d="M435.392 203.6c10.704 13.84 32.848 24.272 51.488 24.272h92.448c18.624 0 40.752-10.432 51.472-24.256l71.296-91.872c7.344-9.472 9.024-20.064 4.624-29.056-4.608-9.408-14.848-14.8-28.08-14.8H387.584c-13.248 0-23.488 5.392-28.096 14.816-4.4 8.992-2.72 19.584 4.64 29.056l71.264 91.84zM670.8 99.872L605.52 184c-4.656 6-17.632 11.872-26.192 11.872H486.88c-8.576 0-21.552-5.872-26.192-11.872l-65.184-84.128H670.8zM723.216 760.192L604.096 328.8c-5.504-19.952-25.536-35.584-45.632-35.584h-50.8c-20.08 0-40.128 15.632-45.632 35.584l-119.12 431.408c-5.072 18.368 0.528 42.816 13.024 56.88L504.992 984.4c7.264 8.16 17.504 12.848 28.096 12.848s20.832-4.688 28.096-12.848l148.992-167.296c12.528-14.08 18.128-38.528 13.04-56.912z m-36.928 35.584L537.28 963.088c-2.464 2.784-5.92 2.784-8.384 0L379.84 795.776c-5.216-5.856-8.24-19.28-6.08-27.056l119.12-431.424c1.68-6.096 9.008-12.08 14.784-12.08h50.8c5.776 0 13.088 5.984 14.784 12.096l119.12 431.424c2.16 7.776-0.848 21.168-6.08 27.04z" p-id="19995" fill="#707070"></path></svg>