<?xml version="1.0" encoding="utf-8"?>
<svg version="1.1" xmlns:xlink="http://www.w3.org/1999/xlink" width="55px" height="25px" xmlns="http://www.w3.org/2000/svg">
  <g transform="matrix(1 0 0 1 -1754 -820 )">
    <path d="M 1754.5 824  A 3.5 3.5 0 0 1 1758 820.5 L 1805 820.5  A 3.5 3.5 0 0 1 1808.5 824 L 1808.5 841  A 3.5 3.5 0 0 1 1805 844.5 L 1758 844.5  A 3.5 3.5 0 0 1 1754.5 841 L 1754.5 824  Z " fill-rule="nonzero" fill="#ffffff" stroke="none" />
    <path d="M 1754.5 824  A 3.5 3.5 0 0 1 1758 820.5 L 1805 820.5  A 3.5 3.5 0 0 1 1808.5 824 L 1808.5 841  A 3.5 3.5 0 0 1 1805 844.5 L 1758 844.5  A 3.5 3.5 0 0 1 1754.5 841 L 1754.5 824  Z " stroke-width="1" stroke="#3894df" fill="none" />
  </g>
</svg>