<?xml version="1.0" encoding="utf-8"?>
<svg version="1.1" xmlns:xlink="http://www.w3.org/1999/xlink" width="16px" height="16px" xmlns="http://www.w3.org/2000/svg">
  <g transform="matrix(1 0 0 1 -1141 -178 )">
    <path d="M 15.37 0.0441666666666664  C 15.0572222222222 -0.033611111111111  14.7880555555556 0.0402777777777777  14.5625 0.265833333333334  L 8 6.82833333333333  L 1.4375 0.265833333333334  C 1.26361111111111 0.109722222222223  1.06833333333333 0.031666666666667  0.851666666666666 0.031666666666667  C 0.634999999999999 0.031666666666667  0.443888888888889 0.114166666666667  0.278333333333333 0.279166666666667  C 0.112777777777778 0.444166666666667  0.030277777777778 0.635277777777778  0.0308333333333337 0.8525  C 0.0313888888888888 1.06972222222222  0.109444444444445 1.265  0.265 1.43833333333333  L 6.8275 8.00083333333333  L 0.265 14.5633333333333  C 0.0394444444444458 14.7888888888889  -0.0344444444444436 15.0580555555556  0.0433333333333332 15.3708333333333  C 0.121111111111111 15.6836111111111  0.312222222222222 15.8788888888889  0.616666666666666 15.9566666666667  C 0.921111111111111 16.0344444444444  1.19444444444444 15.9605555555556  1.43666666666667 15.735  L 7.99916666666666 9.1725  L 14.5616666666667 15.735  C 14.7355555555556 15.8911111111111  14.9308333333333 15.9691666666667  15.1475 15.9691666666667  C 15.3641666666667 15.9691666666667  15.5552777777778 15.8866666666667  15.7208333333333 15.7216666666667  C 15.8863888888889 15.5566666666667  15.9688888888889 15.3655555555556  15.9683333333333 15.1483333333333  C 15.9677777777778 14.9311111111111  15.8897222222222 14.7358333333333  15.7341666666667 14.5625  L 9.17166666666667 8  L 15.7341666666667 1.4375  C 15.9597222222222 1.21194444444445  16.0336111111111 0.942777777777778  15.9558333333333 0.63  C 15.8780555555556 0.317222222222223  15.6827777777778 0.121944444444445  15.37 0.0441666666666664  Z " fill-rule="nonzero" fill="#999999" stroke="none" fill-opacity="0.690196078431373" transform="matrix(1 0 0 1 1141 178 )" />
  </g>
</svg>