<?xml version="1.0" encoding="utf-8"?>
<svg version="1.1" xmlns:xlink="http://www.w3.org/1999/xlink" width="12px" height="12px" xmlns="http://www.w3.org/2000/svg">
  <g transform="matrix(1 0 0 1 -569 -338 )">
    <path d="M 575 340  C 577.24 340  579 341.76  579 344  C 579 346.24  577.24 348  575 348  C 572.76 348  571 346.24  571 344  C 571 341.76  572.76 340  575 340  Z " fill-rule="nonzero" fill="#ffffff" stroke="none" />
    <path d="M 575 339.5  C 577.52 339.5  579.5 341.48  579.5 344  C 579.5 346.52  577.52 348.5  575 348.5  C 572.48 348.5  570.5 346.52  570.5 344  C 570.5 341.48  572.48 339.5  575 339.5  Z " stroke-width="3" stroke="#409eff" fill="none" />
  </g>
</svg>