<?xml version="1.0" encoding="utf-8"?>
<svg version="1.1" xmlns:xlink="http://www.w3.org/1999/xlink" width="12px" height="12px" xmlns="http://www.w3.org/2000/svg">
  <g transform="matrix(1 0 0 1 -569 -338 )">
    <path d="M 575 338  C 578.36 338  581 340.64  581 344  C 581 347.36  578.36 350  575 350  C 571.64 350  569 347.36  569 344  C 569 340.64  571.64 338  575 338  Z " fill-rule="nonzero" fill="#ffffff" stroke="none" />
    <path d="M 575 338.5  C 578.08 338.5  580.5 340.92  580.5 344  C 580.5 347.08  578.08 349.5  575 349.5  C 571.92 349.5  569.5 347.08  569.5 344  C 569.5 340.92  571.92 338.5  575 338.5  Z " stroke-width="1" stroke="#409eff" fill="none" />
  </g>
</svg>