<?xml version="1.0" encoding="utf-8"?>
<svg version="1.1" xmlns:xlink="http://www.w3.org/1999/xlink" width="16px" height="14px" xmlns="http://www.w3.org/2000/svg">
  <g transform="matrix(1 0 0 1 -344 -122 )">
    <path d="M 14.8636363636364 2.33333333333333  L 0.857954545454545 2.33333333333333  L 2.19886363636364 12.9317708333333  C 2.19886363636364 13.5223958333333  2.94318181818182 14  3.86363636363636 14  L 11.875 14  C 12.7954545454545 14  13.5397727272727 13.5223958333333  13.5397727272727 12.9317708333333  L 14.8636363636364 2.33333333333333  Z M 5.42045454545455 11.9947916666667  L 4.35795454545455 11.9947916666667  L 3.97727272727273 3.5  L 5.02840909090909 3.5  L 5.42045454545455 11.9947916666667  Z M 8.35227272727273 3.5  L 8.35227272727273 11.9947916666667  L 7.32954545454545 11.9947916666667  L 7.32954545454545 3.5  L 8.35227272727273 3.5  Z M 11.7045454545455 3.5  L 11.3238636363636 11.9947916666667  L 10.2670454545455 11.9947916666667  L 10.6534090909091 3.5  L 11.7045454545455 3.5  Z M 15.6818181818182 2  C 15.6818181818182 1.32708333333333  14.9772727272727 1.02083333333333  13.9772727272727 1.02083333333333  L 11.9318181818182 1.02083333333333  L 10.4375 0.182291666666667  C 10.2272727272727 0.065625  9.96022727272727 0  9.6875 0  L 6.00568181818182 0  C 5.72727272727273 0  5.45454545454545 0.065625  5.24431818181818 0.182291666666667  L 3.75 1.02083333333333  L 1.70454545454545 1.02083333333333  C 0.704545454545455 1.02083333333333  0 1.32708333333333  0 2  L 15.6818181818182 2  Z " fill-rule="nonzero" fill="#f03f3c" stroke="none" transform="matrix(1 0 0 1 344 122 )" />
  </g>
</svg>