<?xml version="1.0" encoding="utf-8"?>
<svg version="1.1" xmlns:xlink="http://www.w3.org/1999/xlink" width="11px" height="11px" xmlns="http://www.w3.org/2000/svg">
  <g transform="matrix(1 0 0 1 -1115 -1080 )">
    <path d="M 1120.5 1081  C 1123.02 1081  1125 1082.98  1125 1085.5  C 1125 1088.02  1123.02 1090  1120.5 1090  C 1117.98 1090  1116 1088.02  1116 1085.5  C 1116 1082.98  1117.98 1081  1120.5 1081  Z " fill-rule="nonzero" fill="#61a5e8" stroke="none" />
    <path d="M 1120.5 1081  C 1123.02 1081  1125 1082.98  1125 1085.5  C 1125 1088.02  1123.02 1090  1120.5 1090  C 1117.98 1090  1116 1088.02  1116 1085.5  C 1116 1082.98  1117.98 1081  1120.5 1081  Z " stroke-width="2" stroke="#61a5e8" fill="none" />
  </g>
</svg>