<?xml version="1.0" encoding="utf-8"?>
<svg version="1.1" xmlns:xlink="http://www.w3.org/1999/xlink" width="16px" height="13px" xmlns="http://www.w3.org/2000/svg">
  <g transform="matrix(1 0 0 1 -58 -6 )">
    <path d="M 0.404351851851851 11.9141840277778  C 0.525771604938271 11.8155304783951  0.681111111111111 11.7662037037037  0.87037037037037 11.7662037037037  L 15.1296296296296 11.7662037037037  C 15.3188888888889 11.7662037037037  15.4742283950617 11.8155304783951  15.5956481481482 11.9141840277778  C 15.7170679012346 12.0128375771605  15.7777777777778 12.1390509259259  15.7777777777778 12.2928240740741  C 15.7777777777778 12.4465972222222  15.7170679012346 12.5728105709877  15.5956481481482 12.6714641203704  C 15.4742283950617 12.7701176697531  15.3188888888889 12.8194444444444  15.1296296296296 12.8194444444444  L 0.87037037037037 12.8194444444444  C 0.681111111111111 12.8194444444444  0.525771604938272 12.7701176697531  0.404351851851851 12.6714641203704  C 0.282932098765432 12.5728105709877  0.222222222222222 12.4465972222222  0.222222222222222 12.2928240740741  C 0.222222222222223 12.1390509259259  0.282932098765433 12.0128375771605  0.404351851851851 11.9141840277778  Z M 8.6487962962963 7.58694444444444  L 8.64814814814815 7.58641782407407  L 13.4282407407407 3.70259259259259  L 14.3602777777778 4.44302083333333  L 7.93972222222222 9.65972222222222  L 1.51916666666667 4.44302083333333  L 2.43046296296296 3.70259259259259  L 7.3525 7.70174768518519  L 7.3525 0.181082175925926  L 8.6487962962963 0.181082175925926  L 8.6487962962963 7.58694444444444  Z " fill-rule="nonzero" fill="#1890ff" stroke="none" transform="matrix(1 0 0 1 58 6 )" />
  </g>
</svg>