<?xml version="1.0" encoding="utf-8"?>
<svg version="1.1" xmlns:xlink="http://www.w3.org/1999/xlink" width="40px" height="40px" xmlns="http://www.w3.org/2000/svg">
  <g transform="matrix(1 0 0 1 -86 -59 )">
    <path d="M 106 60  C 116.64 60  125 68.36  125 79  C 125 89.64  116.64 98  106 98  C 95.36 98  87 89.64  87 79  C 87 68.36  95.36 60  106 60  Z " fill-rule="nonzero" fill="#ffffff" stroke="none" />
    <path d="M 106 60  C 116.64 60  125 68.36  125 79  C 125 89.64  116.64 98  106 98  C 95.36 98  87 89.64  87 79  C 87 68.36  95.36 60  106 60  Z " stroke-width="2" stroke="#1890ff" fill="none" />
  </g>
</svg>