<?xml version="1.0" encoding="utf-8"?>
<svg version="1.1" xmlns:xlink="http://www.w3.org/1999/xlink" width="40px" height="40px" xmlns="http://www.w3.org/2000/svg">
  <g transform="matrix(1 0 0 1 -730 -59 )">
    <path d="M 750 60  C 760.64 60  769 68.36  769 79  C 769 89.64  760.64 98  750 98  C 739.36 98  731 89.64  731 79  C 731 68.36  739.36 60  750 60  Z " fill-rule="nonzero" fill="#ffffff" stroke="none" />
    <path d="M 750 60  C 760.64 60  769 68.36  769 79  C 769 89.64  760.64 98  750 98  C 739.36 98  731 89.64  731 79  C 731 68.36  739.36 60  750 60  Z " stroke-width="2" stroke="#bcbcbc" fill="none" />
  </g>
</svg>