<?xml version="1.0" encoding="utf-8"?>
<svg version="1.1" xmlns:xlink="http://www.w3.org/1999/xlink" width="15px" height="15px" xmlns="http://www.w3.org/2000/svg">
  <g transform="matrix(1 0 0 1 -635 -980 )">
    <path d="M 14.409375 0.0414062499999998  C 14.1161458333333 -0.0315104166666666  13.8638020833333 0.0377604166666666  13.65234375 0.24921875  L 7.5 6.4015625  L 1.34765625 0.24921875  C 1.18463541666667 0.102864583333334  1.0015625 0.0296875000000003  0.7984375 0.0296875000000003  C 0.595312499999999 0.0296875000000003  0.416145833333333 0.10703125  0.2609375 0.261718750000001  C 0.105729166666667 0.416406250000001  0.0283854166666669 0.595572916666667  0.0289062500000004 0.79921875  C 0.0294270833333332 1.00286458333333  0.102604166666667 1.1859375  0.2484375 1.3484375  L 6.40078125 7.50078125  L 0.2484375 13.653125  C 0.0369791666666679 13.8645833333333  -0.0322916666666658 14.1169270833333  0.0406249999999998 14.41015625  C 0.113541666666667 14.7033854166667  0.292708333333334 14.8864583333333  0.578125 14.959375  C 0.863541666666667 15.0322916666667  1.11979166666667 14.9630208333333  1.346875 14.7515625  L 7.49921875 8.59921875  L 13.6515625 14.7515625  C 13.8145833333333 14.8979166666667  13.99765625 14.97109375  14.20078125 14.97109375  C 14.40390625 14.97109375  14.5830729166667 14.89375  14.73828125 14.7390625  C 14.8934895833333 14.584375  14.9708333333333 14.4052083333333  14.9703125 14.2015625  C 14.9697916666667 13.9979166666667  14.8966145833333 13.81484375  14.75078125 13.65234375  L 8.5984375 7.5  L 14.75078125 1.34765625  C 14.9622395833333 1.13619791666667  15.0315104166667 0.883854166666667  14.95859375 0.590625  C 14.8856770833333 0.297395833333334  14.7026041666667 0.114322916666667  14.409375 0.0414062499999998  Z " fill-rule="nonzero" fill="#d41515" stroke="none" transform="matrix(1 0 0 1 635 980 )" />
  </g>
</svg>