<?xml version="1.0" encoding="utf-8"?>
<svg version="1.1" xmlns:xlink="http://www.w3.org/1999/xlink" width="20px" height="20px" xmlns="http://www.w3.org/2000/svg">
  <g transform="matrix(1 0 0 1 -1035 -1094 )">
    <path d="M 0.948275862068966 9.24568965517241  L 9.24568965517241 9.24568965517241  L 9.24568965517241 0.948275862068966  C 9.24568965517242 0.72801724137931  9.3163433908046 0.547234195402299  9.45765086206897 0.405926724137931  C 9.59895833333333 0.264619252873564  9.77974137931035 0.19396551724138  10 0.193965517241379  C 10.2202586206897 0.193965517241379  10.4010416666667 0.264619252873563  10.542349137931 0.405926724137931  C 10.6836566091954 0.547234195402299  10.7543103448276 0.728017241379311  10.7543103448276 0.948275862068966  L 10.7543103448276 9.24568965517241  L 19.051724137931 9.24568965517241  C 19.2719827586207 9.24568965517242  19.4527658045977 9.3163433908046  19.5940732758621 9.45765086206897  C 19.7353807471264 9.59895833333333  19.8060344827586 9.77974137931035  19.8060344827586 10  C 19.8060344827586 10.2202586206897  19.7353807471264 10.4010416666667  19.5940732758621 10.542349137931  C 19.4527658045977 10.6836566091954  19.2719827586207 10.7543103448276  19.051724137931 10.7543103448276  L 10.7543103448276 10.7543103448276  L 10.7543103448276 19.051724137931  C 10.7543103448276 19.2719827586207  10.6836566091954 19.4527658045977  10.542349137931 19.5940732758621  C 10.4010416666667 19.7353807471264  10.2202586206897 19.8060344827586  10 19.8060344827586  C 9.77974137931034 19.8060344827586  9.59895833333333 19.7353807471264  9.45765086206897 19.5940732758621  C 9.3163433908046 19.4527658045977  9.24568965517242 19.2719827586207  9.24568965517241 19.051724137931  L 9.24568965517241 10.7543103448276  L 0.948275862068966 10.7543103448276  C 0.72801724137931 10.7543103448276  0.547234195402299 10.6836566091954  0.405926724137931 10.542349137931  C 0.264619252873564 10.4010416666667  0.19396551724138 10.2202586206897  0.193965517241379 10  C 0.193965517241379 9.77974137931034  0.264619252873563 9.59895833333333  0.405926724137931 9.45765086206897  C 0.547234195402299 9.3163433908046  0.728017241379311 9.24568965517242  0.948275862068966 9.24568965517241  Z " fill-rule="nonzero" fill="#136cc3" stroke="none" transform="matrix(1 0 0 1 1035 1094 )" />
  </g>
</svg>