<?xml version="1.0" encoding="utf-8"?>
<svg version="1.1" xmlns:xlink="http://www.w3.org/1999/xlink" width="20px" height="3px" xmlns="http://www.w3.org/2000/svg">
  <g transform="matrix(1 0 0 1 -1065 -1102 )">
    <path d="M 0.405926724137931 2.28640625  C 0.547234195402299 2.49130208333334  0.728017241379311 2.59375  0.948275862068966 2.59375  L 19.051724137931 2.59375  C 19.2719827586207 2.59375  19.4527658045977 2.49130208333334  19.5940732758621 2.28640625  C 19.7353807471264 2.08151041666667  19.8060344827586 1.819375  19.8060344827586 1.5  C 19.8060344827586 1.180625  19.7353807471264 0.918489583333333  19.5940732758621 0.713593750000001  C 19.4527658045977 0.508697916666673  19.2719827586207 0.406250000000004  19.051724137931 0.40625  L 0.948275862068966 0.40625  C 0.72801724137931 0.406250000000004  0.547234195402299 0.508697916666666  0.405926724137931 0.713593750000001  C 0.264619252873564 0.918489583333333  0.19396551724138 1.180625  0.193965517241379 1.5  C 0.193965517241379 1.819375  0.264619252873563 2.08151041666667  0.405926724137931 2.28640625  Z " fill-rule="nonzero" fill="#d22a2a" stroke="none" transform="matrix(1 0 0 1 1065 1102 )" />
  </g>
</svg>