<?xml version="1.0" encoding="utf-8"?>
<svg version="1.1" xmlns:xlink="http://www.w3.org/1999/xlink" width="9px" height="5px" xmlns="http://www.w3.org/2000/svg">
  <g transform="matrix(1 0 0 1 -995 -985 )">
    <path d="M 8.7563414634146 0.0571707317071741  L 8.91175609756095 0.195121951219562  C 8.99744969378035 0.271317044192529  8.99744969378035 0.394829297271144  8.91175609756095 0.471024390244111  L 4.64334146341466 4.26536585365852  C 4.60216794355416 4.30200527668899  4.54629715202172 4.32259251832511  4.48803658536589 4.32259251832511  C 4.42977601870993 4.32259251832511  4.37390522717762 4.30200527668899  4.33273170731712 4.26536585365852  L 0.0643170731706988 0.471024390244111  C -0.0213765230487013 0.394829297271144  -0.0213765230487013 0.271317044192529  0.0643170731706988 0.195121951219562  L 0.219512195122007 0.0571707317071741  C 0.305231674716339 -0.0190013538208405  0.444182959429909 -0.0190013538208405  0.529902439024369 0.0571707317071741  L 4.4879268292683 3.57541463414623  L 8.44617073170728 0.0571707317071741  C 8.53189021130174 -0.0190013538208405  8.67084149601531 -0.0190013538208405  8.75656097560977 0.0571707317071741  Z " fill-rule="nonzero" fill="#909399" stroke="none" fill-opacity="0.647058823529412" transform="matrix(1 0 0 1 995 985 )" />
  </g>
</svg>