<?xml version="1.0" encoding="utf-8"?>
<svg version="1.1" xmlns:xlink="http://www.w3.org/1999/xlink" width="12px" height="5px" xmlns="http://www.w3.org/2000/svg">
  <g transform="matrix(1 0 0 1 -987 -356 )">
    <path d="M 11.6751219512195 0.0571707317072594  L 11.8823414634146 0.195121951219505  C 11.9965995917071 0.271317044192443  11.9965995917071 0.394829297271087  11.8823414634146 0.471024390244025  L 6.19112195121954 4.26536585365849  C 6.13622392473889 4.30200527668896  6.06172953602896 4.32259251832511  5.98404878048785 4.32259251832511  C 5.90636802494657 4.32259251832511  5.83187363623682 4.30200527668896  5.77697560975616 4.26536585365849  L 0.0857560975609317 0.471024390244025  C -0.0285020307316017 0.394829297271087  -0.0285020307316017 0.271317044192443  0.0857560975609317 0.195121951219505  L 0.292682926829343 0.0571707317072594  C 0.406975566288452 -0.0190013538209257  0.592243945906546 -0.0190013538209257  0.706536585365825 0.0571707317072594  L 5.9839024390244 3.57541463414637  L 11.2615609756097 0.0571707317072594  C 11.375853615069 -0.0190013538209257  11.5611219946871 -0.0190013538209257  11.6754146341464 0.0571707317072594  Z " fill-rule="nonzero" fill="#909399" stroke="none" fill-opacity="0.647058823529412" transform="matrix(1 0 0 1 987 356 )" />
  </g>
</svg>